<svg width="20" height="20" viewBox="0 0 20 20" fill="none" xmlns="http://www.w3.org/2000/svg">
<path d="M18.43 16.4166L15.5625 10.9499V5.85577C15.5373 4.39762 14.9403 3.00772 13.9002 1.98546C12.8601 0.963203 11.46 0.390381 10.0017 0.390381C8.5433 0.390381 7.14328 0.963203 6.10317 1.98546C5.06306 3.00772 4.46609 4.39762 4.44084 5.85577V10.9516L1.57001 16.4166H6.33334C6.42248 17.3286 6.84781 18.1747 7.52651 18.7903C8.20521 19.4059 9.08871 19.7469 10.005 19.7469C10.9213 19.7469 11.8048 19.4059 12.4835 18.7903C13.1622 18.1747 13.5875 17.3286 13.6767 16.4166H18.43ZM5.56251 11.2283V5.85577C5.56251 4.67843 6.0302 3.54931 6.86271 2.71681C7.69521 1.8843 8.82433 1.41661 10.0017 1.41661C11.179 1.41661 12.3081 1.8843 13.1406 2.71681C13.9731 3.54931 14.4408 4.67843 14.4408 5.85577V11.2283L16.57 15.2941H3.43001L5.56251 11.2283ZM10.0058 18.6274C9.38676 18.6253 8.78903 18.401 8.32146 17.9952C7.8539 17.5894 7.5476 17.0292 7.45834 16.4166H12.5525C12.4633 17.0291 12.1571 17.5892 11.6897 17.9949C11.2223 18.4007 10.6248 18.6251 10.0058 18.6274Z" fill="#6D6D78"/>
</svg>
