<svg width="20" height="20" viewBox="0 0 20 20" fill="none" xmlns="http://www.w3.org/2000/svg">
<path d="M18.4301 16.4169L15.5626 10.9502V5.85602C15.5373 4.39786 14.9404 3.00797 13.9002 1.98571C12.8601 0.963447 11.4601 0.390625 10.0017 0.390625C8.54336 0.390625 7.14334 0.963447 6.10323 1.98571C5.06312 3.00797 4.46615 4.39786 4.4409 5.85602V10.9519L1.57007 16.4169H6.3334C6.42254 17.3288 6.84787 18.1749 7.52657 18.7905C8.20527 19.4061 9.08878 19.7471 10.0051 19.7471C10.9214 19.7471 11.8049 19.4061 12.4836 18.7905C13.1623 18.1749 13.5876 17.3288 13.6767 16.4169H18.4301ZM5.56257 11.2285V5.85602C5.56257 4.67868 6.03026 3.54956 6.86277 2.71705C7.69528 1.88455 8.82439 1.41685 10.0017 1.41685C11.1791 1.41685 12.3082 1.88455 13.1407 2.71705C13.9732 3.54956 14.4409 4.67868 14.4409 5.85602V11.2285L16.5701 15.2944H3.43007L5.56257 11.2285ZM10.0059 18.6277C9.38682 18.6256 8.78909 18.4012 8.32152 17.9954C7.85396 17.5897 7.54767 17.0295 7.4584 16.4169H12.5526C12.4633 17.0293 12.1571 17.5894 11.6898 17.9952C11.2224 18.4009 10.6248 18.6254 10.0059 18.6277Z" fill="#6D6D78"/>
</svg>
