<svg width="20" height="20" viewBox="0 0 20 20" fill="none" xmlns="http://www.w3.org/2000/svg">
<path d="M18.43 16.4169L15.5625 10.9502V5.85602C15.5373 4.39786 14.9403 3.00797 13.9002 1.98571C12.8601 0.963447 11.46 0.390625 10.0017 0.390625C8.5433 0.390625 7.14328 0.963447 6.10317 1.98571C5.06306 3.00797 4.46609 4.39786 4.44084 5.85602V10.9519L1.57001 16.4169H6.33334C6.42248 17.3288 6.84781 18.1749 7.52651 18.7905C8.20521 19.4061 9.08871 19.7471 10.005 19.7471C10.9213 19.7471 11.8048 19.4061 12.4835 18.7905C13.1622 18.1749 13.5875 17.3288 13.6767 16.4169H18.43ZM5.56251 11.2285V5.85602C5.56251 4.67868 6.0302 3.54956 6.86271 2.71705C7.69521 1.88455 8.82433 1.41685 10.0017 1.41685C11.179 1.41685 12.3081 1.88455 13.1406 2.71705C13.9731 3.54956 14.4408 4.67868 14.4408 5.85602V11.2285L16.57 15.2944H3.43001L5.56251 11.2285ZM10.0058 18.6277C9.38676 18.6256 8.78903 18.4012 8.32146 17.9954C7.8539 17.5897 7.5476 17.0295 7.45834 16.4169H12.5525C12.4633 17.0293 12.1571 17.5894 11.6897 17.9952C11.2223 18.4009 10.6248 18.6254 10.0058 18.6277Z" fill="#6D6D78"/>
</svg>
