<svg width="17" height="16" viewBox="0 0 17 16" fill="none" xmlns="http://www.w3.org/2000/svg">
<path d="M6.54014 7.34875C6.39383 7.34875 6.25353 7.40687 6.15009 7.51031C6.04664 7.61376 5.98853 7.75406 5.98853 7.90037V13.9986C5.98853 14.1957 6.09368 14.3778 6.26436 14.4763C6.43498 14.5749 6.64529 14.5749 6.81592 14.4763C6.9866 14.3778 7.09176 14.1957 7.09176 13.9986V7.90037C7.09176 7.75406 7.03365 7.61376 6.9302 7.51031C6.82675 7.40687 6.68645 7.34875 6.54014 7.34875Z" fill="#494950"/>
<path d="M10.0362 4.29944C9.88985 4.29944 9.74954 4.35755 9.6461 4.461C9.54266 4.56444 9.48454 4.70475 9.48454 4.85099V13.9984C9.48454 14.1955 9.5897 14.3775 9.76038 14.4761C9.931 14.5747 10.1413 14.5747 10.3119 14.4761C10.4826 14.3775 10.5878 14.1955 10.5878 13.9984V4.85099C10.5878 4.70475 10.5297 4.56444 10.4262 4.461C10.3228 4.35755 10.1825 4.29944 10.0362 4.29944Z" fill="#494950"/>
<path d="M3.0426 10.3975C2.89788 10.3999 2.75988 10.4591 2.65838 10.5623C2.55688 10.6654 2.5 10.8044 2.5 10.9492V13.9983C2.5 14.1954 2.60515 14.3774 2.77584 14.476C2.94646 14.5746 3.15676 14.5746 3.32739 14.476C3.49807 14.3774 3.60323 14.1954 3.60323 13.9983V10.9492C3.60323 10.8013 3.54389 10.6596 3.43849 10.5559C3.33305 10.4522 3.19045 10.3951 3.0426 10.3975Z" fill="#494950"/>
<path d="M13.5317 1.25C13.3854 1.25 13.2451 1.30811 13.1417 1.41156C13.0382 1.51501 12.9801 1.65531 12.9801 1.80162V13.9981C12.9801 14.1952 13.0853 14.3773 13.2559 14.4758C13.4266 14.5744 13.6368 14.5744 13.8075 14.4758C13.9782 14.3773 14.0833 14.1952 14.0833 13.9981V1.80162C14.0833 1.65531 14.0252 1.515 13.9217 1.41156C13.8183 1.30811 13.678 1.25 13.5317 1.25Z" fill="#494950"/>
</svg>
