<svg width="17" height="16" viewBox="0 0 17 16" fill="none" xmlns="http://www.w3.org/2000/svg">
<path d="M6.79014 7.34872C6.64383 7.34872 6.50353 7.40684 6.40009 7.51028C6.29664 7.61373 6.23853 7.75403 6.23853 7.90034V13.9986C6.23853 14.1957 6.34368 14.3778 6.51436 14.4763C6.68498 14.5749 6.89529 14.5749 7.06592 14.4763C7.2366 14.3778 7.34176 14.1957 7.34176 13.9986V7.90034C7.34176 7.75403 7.28365 7.61373 7.1802 7.51028C7.07675 7.40684 6.93645 7.34872 6.79014 7.34872Z" fill="#494950"/>
<path d="M10.2862 4.29947C10.1399 4.29947 9.99954 4.35758 9.8961 4.46103C9.79266 4.56448 9.73454 4.70478 9.73454 4.85103V13.9984C9.73454 14.1955 9.8397 14.3776 10.0104 14.4761C10.181 14.5747 10.3913 14.5747 10.5619 14.4761C10.7326 14.3776 10.8378 14.1955 10.8378 13.9984V4.85103C10.8378 4.70478 10.7797 4.56447 10.6762 4.46103C10.5728 4.35758 10.4325 4.29947 10.2862 4.29947Z" fill="#494950"/>
<path d="M3.2926 10.3975C3.14788 10.3999 3.00988 10.4591 2.90838 10.5623C2.80688 10.6654 2.75 10.8044 2.75 10.9492V13.9983C2.75 14.1954 2.85515 14.3774 3.02584 14.476C3.19646 14.5746 3.40676 14.5746 3.57739 14.476C3.74807 14.3774 3.85323 14.1954 3.85323 13.9983V10.9492C3.85323 10.8013 3.79389 10.6596 3.68849 10.5559C3.58305 10.4522 3.44045 10.3951 3.2926 10.3975Z" fill="#494950"/>
<path d="M13.7817 1.25C13.6354 1.25 13.4951 1.30811 13.3917 1.41156C13.2882 1.51501 13.2301 1.65531 13.2301 1.80162V13.9981C13.2301 14.1952 13.3353 14.3773 13.5059 14.4758C13.6766 14.5744 13.8868 14.5744 14.0575 14.4758C14.2282 14.3773 14.3333 14.1952 14.3333 13.9981V1.80162C14.3333 1.65531 14.2752 1.515 14.1717 1.41156C14.0683 1.30811 13.928 1.25 13.7817 1.25Z" fill="#494950"/>
</svg>
