<svg width="16" height="16" viewBox="0 0 16 16" fill="none" xmlns="http://www.w3.org/2000/svg">
<path d="M6.04014 7.34863C5.89383 7.34863 5.75353 7.40674 5.65009 7.51019C5.54664 7.61364 5.48853 7.75394 5.48853 7.90025V13.9985C5.48853 14.1956 5.59368 14.3777 5.76436 14.4762C5.93498 14.5748 6.14529 14.5748 6.31592 14.4762C6.4866 14.3777 6.59176 14.1956 6.59176 13.9985V7.90025C6.59176 7.75394 6.53365 7.61363 6.4302 7.51019C6.32675 7.40675 6.18645 7.34863 6.04014 7.34863Z" fill="#494950"/>
<path d="M9.53611 4.29956C9.38981 4.29956 9.2495 4.35767 9.14606 4.46112C9.04261 4.56457 8.9845 4.70487 8.9845 4.85112V13.9985C8.9845 14.1956 9.08965 14.3777 9.26033 14.4762C9.43095 14.5748 9.64126 14.5748 9.81189 14.4762C9.98257 14.3777 10.0877 14.1956 10.0877 13.9985V4.85112C10.0877 4.70487 10.0296 4.56456 9.92617 4.46112C9.82272 4.35768 9.68242 4.29956 9.53611 4.29956Z" fill="#494950"/>
<path d="M2.5426 10.3975C2.39788 10.3999 2.25988 10.4591 2.15838 10.5623C2.05688 10.6654 2 10.8044 2 10.9492V13.9983C2 14.1954 2.10515 14.3774 2.27584 14.476C2.44646 14.5746 2.65676 14.5746 2.82739 14.476C2.99807 14.3774 3.10323 14.1954 3.10323 13.9983V10.9492C3.10323 10.8013 3.04389 10.6596 2.93849 10.5559C2.83305 10.4522 2.69045 10.3951 2.5426 10.3975Z" fill="#494950"/>
<path d="M13.0317 1.25C12.8854 1.25 12.7451 1.30811 12.6417 1.41156C12.5382 1.51501 12.4801 1.65531 12.4801 1.80162V13.9981C12.4801 14.1952 12.5853 14.3773 12.7559 14.4758C12.9266 14.5744 13.1368 14.5744 13.3075 14.4758C13.4782 14.3773 13.5833 14.1952 13.5833 13.9981V1.80162C13.5833 1.65531 13.5252 1.515 13.4217 1.41156C13.3183 1.30811 13.178 1.25 13.0317 1.25Z" fill="#494950"/>
</svg>
