<svg width="33" height="32" viewBox="0 0 33 32" fill="none" xmlns="http://www.w3.org/2000/svg">
<path d="M12.5803 14.6973C12.2877 14.6973 12.0071 14.8135 11.8002 15.0204C11.5933 15.2273 11.4771 15.5079 11.4771 15.8005V27.997C11.4771 28.3912 11.6874 28.7553 12.0287 28.9524C12.37 29.1496 12.7906 29.1496 13.1318 28.9524C13.4732 28.7553 13.6835 28.3912 13.6835 27.997V15.8005C13.6835 15.5079 13.5673 15.2273 13.3604 15.0204C13.1535 14.8135 12.8729 14.6973 12.5803 14.6973Z" fill="black"/>
<path d="M19.5722 8.59912C19.2796 8.59912 18.999 8.71534 18.7921 8.92224C18.5852 9.12913 18.469 9.40974 18.469 9.70223V27.997C18.469 28.3912 18.6793 28.7553 19.0207 28.9524C19.3619 29.1496 19.7825 29.1496 20.1238 28.9524C20.4651 28.7553 20.6755 28.3912 20.6755 27.997V9.70223C20.6755 9.40974 20.5592 9.12912 20.3523 8.92224C20.1454 8.71535 19.8648 8.59912 19.5722 8.59912Z" fill="black"/>
<path d="M5.58521 20.7951C5.29577 20.7998 5.01975 20.9181 4.81676 21.1245C4.61375 21.3309 4.5 21.6087 4.5 21.8983V27.9966C4.5 28.3908 4.71031 28.7549 5.05168 28.952C5.39291 29.1491 5.81352 29.1491 6.15479 28.952C6.49615 28.7549 6.70647 28.3908 6.70647 27.9966V21.8983C6.70647 21.6025 6.58777 21.3192 6.37699 21.1117C6.16609 20.9043 5.8809 20.7902 5.58521 20.7951Z" fill="black"/>
<path d="M26.5634 2.5C26.2708 2.5 25.9902 2.61622 25.7833 2.82312C25.5764 3.03001 25.4602 3.31062 25.4602 3.60323V27.9963C25.4602 28.3905 25.6705 28.7546 26.0118 28.9517C26.3531 29.1488 26.7736 29.1488 27.115 28.9517C27.4563 28.7546 27.6665 28.3905 27.6665 27.9963V3.60323C27.6665 3.31062 27.5503 3.03 27.3434 2.82312C27.1365 2.61623 26.8559 2.5 26.5634 2.5Z" fill="black"/>
</svg>
