<svg width="16" height="16" viewBox="0 0 16 16" fill="none" xmlns="http://www.w3.org/2000/svg">
<path d="M6.04014 7.34873C5.89383 7.34873 5.75353 7.40684 5.65009 7.51029C5.54664 7.61374 5.48853 7.75404 5.48853 7.90035V13.9986C5.48853 14.1957 5.59368 14.3778 5.76436 14.4763C5.93498 14.5749 6.14529 14.5749 6.31592 14.4763C6.4866 14.3778 6.59176 14.1957 6.59176 13.9986V7.90035C6.59176 7.75404 6.53365 7.61373 6.4302 7.51029C6.32675 7.40685 6.18645 7.34873 6.04014 7.34873Z" fill="#494950"/>
<path d="M9.53617 4.29946C9.38987 4.29946 9.24956 4.35757 9.14612 4.46102C9.04267 4.56447 8.98456 4.70477 8.98456 4.85102V13.9984C8.98456 14.1955 9.08971 14.3776 9.2604 14.4761C9.43101 14.5747 9.64132 14.5747 9.81195 14.4761C9.98263 14.3776 10.0878 14.1955 10.0878 13.9984V4.85102C10.0878 4.70477 10.0297 4.56446 9.92623 4.46102C9.82278 4.35758 9.68248 4.29946 9.53617 4.29946Z" fill="#494950"/>
<path d="M2.5426 10.3975C2.39788 10.3999 2.25988 10.459 2.15838 10.5623C2.05688 10.6654 2 10.8044 2 10.9491V13.9983C2 14.1954 2.10515 14.3774 2.27584 14.476C2.44646 14.5745 2.65676 14.5745 2.82739 14.476C2.99807 14.3774 3.10323 14.1954 3.10323 13.9983V10.9491C3.10323 10.8012 3.04389 10.6596 2.93849 10.5558C2.83305 10.4522 2.69045 10.3951 2.5426 10.3975Z" fill="#494950"/>
<path d="M13.0317 1.25C12.8854 1.25 12.7451 1.30811 12.6417 1.41156C12.5382 1.51501 12.4801 1.65531 12.4801 1.80162V13.9981C12.4801 14.1952 12.5853 14.3773 12.7559 14.4758C12.9266 14.5744 13.1368 14.5744 13.3075 14.4758C13.4782 14.3773 13.5833 14.1952 13.5833 13.9981V1.80162C13.5833 1.65531 13.5252 1.515 13.4217 1.41156C13.3183 1.30811 13.178 1.25 13.0317 1.25Z" fill="#494950"/>
</svg>
