<svg width="17" height="16" viewBox="0 0 17 16" fill="none" xmlns="http://www.w3.org/2000/svg">
<path d="M6.29014 7.34875C6.14383 7.34875 6.00353 7.40687 5.90009 7.51031C5.79664 7.61376 5.73853 7.75406 5.73853 7.90037V13.9986C5.73853 14.1957 5.84368 14.3778 6.01436 14.4763C6.18498 14.5749 6.39529 14.5749 6.56592 14.4763C6.7366 14.3778 6.84176 14.1957 6.84176 13.9986V7.90037C6.84176 7.75406 6.78365 7.61376 6.6802 7.51031C6.57675 7.40687 6.43645 7.34875 6.29014 7.34875Z" fill="#494950"/>
<path d="M9.78617 4.29944C9.63987 4.29944 9.49956 4.35755 9.39612 4.461C9.29267 4.56444 9.23456 4.70475 9.23456 4.85099V13.9984C9.23456 14.1955 9.33971 14.3775 9.5104 14.4761C9.68101 14.5747 9.89132 14.5747 10.062 14.4761C10.2326 14.3775 10.3378 14.1955 10.3378 13.9984V4.85099C10.3378 4.70475 10.2797 4.56444 10.1762 4.461C10.0728 4.35755 9.93248 4.29944 9.78617 4.29944Z" fill="#494950"/>
<path d="M2.7926 10.3975C2.64788 10.3999 2.50988 10.4591 2.40838 10.5623C2.30688 10.6654 2.25 10.8044 2.25 10.9492V13.9983C2.25 14.1954 2.35515 14.3774 2.52584 14.476C2.69646 14.5746 2.90676 14.5746 3.07739 14.476C3.24807 14.3774 3.35323 14.1954 3.35323 13.9983V10.9492C3.35323 10.8013 3.29389 10.6596 3.18849 10.5559C3.08305 10.4522 2.94045 10.3951 2.7926 10.3975Z" fill="#494950"/>
<path d="M13.2817 1.25C13.1354 1.25 12.9951 1.30811 12.8917 1.41156C12.7882 1.51501 12.7301 1.65531 12.7301 1.80162V13.9981C12.7301 14.1952 12.8353 14.3773 13.0059 14.4758C13.1766 14.5744 13.3868 14.5744 13.5575 14.4758C13.7282 14.3773 13.8333 14.1952 13.8333 13.9981V1.80162C13.8333 1.65531 13.7752 1.515 13.6717 1.41156C13.5683 1.30811 13.428 1.25 13.2817 1.25Z" fill="#494950"/>
</svg>
