<svg width="16" height="16" viewBox="0 0 16 16" fill="none" xmlns="http://www.w3.org/2000/svg">
<path fill-rule="evenodd" clip-rule="evenodd" d="M3.00001 2H5.66668V3H14.6667V3.66667H5.66668V4.66667H3.00001V3.66667H1.33334V3H3.00001V2ZM3.66668 4H5.00001V2.66667H3.66668V4Z" fill="black"/>
<path fill-rule="evenodd" clip-rule="evenodd" d="M6.66668 6.66667H9.33334V7.66667H14.6667V8.33333H9.33334V9.33333H6.66668V8.33333H1.33334V7.66667H6.66668V6.66667ZM7.33334 8.66667H8.66668V7.33333H7.33334V8.66667Z" fill="black"/>
<path fill-rule="evenodd" clip-rule="evenodd" d="M10.3333 11.3333V12.3333H1.33334V13H10.3333V14H13V13H14.6667V12.3333H13V11.3333H10.3333ZM12.3333 13.3333H11V12H12.3333V13.3333Z" fill="black"/>
</svg>
