<svg width="16" height="16" viewBox="0 0 16 16" fill="none" xmlns="http://www.w3.org/2000/svg">
<path fill-rule="evenodd" clip-rule="evenodd" d="M2.99998 2H5.66665V3H14.6666V3.66667H5.66665V4.66667H2.99998V3.66667H1.33331V3H2.99998V2ZM3.66665 4H4.99998V2.66667H3.66665V4Z" fill="black"/>
<path fill-rule="evenodd" clip-rule="evenodd" d="M6.66665 6.66667H9.33331V7.66667H14.6666V8.33333H9.33331V9.33333H6.66665V8.33333H1.33331V7.66667H6.66665V6.66667ZM7.33331 8.66667H8.66665V7.33333H7.33331V8.66667Z" fill="black"/>
<path fill-rule="evenodd" clip-rule="evenodd" d="M10.3333 11.3333V12.3333H1.33331V13H10.3333V14H13V13H14.6666V12.3333H13V11.3333H10.3333ZM12.3333 13.3333H11V12H12.3333V13.3333Z" fill="black"/>
</svg>
