<svg width="24" height="24" viewBox="0 0 24 24" fill="none" xmlns="http://www.w3.org/2000/svg">
<path fill-rule="evenodd" clip-rule="evenodd" d="M5.11011 13.2198C5.11011 9.6798 7.99011 6.7998 11.5301 6.7998C15.0701 6.7998 17.9501 9.6798 17.9501 13.2198C17.9501 16.7598 15.0701 19.6398 11.5301 19.6398C7.99011 19.6398 5.11011 16.7598 5.11011 13.2198ZM6.46011 13.2198C6.46011 16.0198 8.74011 18.2898 11.5301 18.2898V18.2998C14.3301 18.2998 16.6001 16.0198 16.6001 13.2298C16.6001 12.1398 16.2501 11.1398 15.6601 10.3098L13.0301 14.1998C12.7101 14.7098 12.1501 15.0198 11.5301 15.0198C11.1026 15.0184 10.6896 14.8642 10.3659 14.5849C10.0421 14.3056 9.829 13.9197 9.76499 13.497C9.70098 13.0742 9.7903 12.6425 10.0168 12.2799C10.2434 11.9173 10.5921 11.6477 11.0001 11.5198L15.4801 10.0798C14.5501 8.9098 13.1301 8.1498 11.5301 8.1498C8.73011 8.1498 6.46011 10.4198 6.46011 13.2198ZM11.9001 13.4598L12.6001 12.4198V12.4098L11.4001 12.7998C11.2101 12.8598 11.0801 13.0298 11.0801 13.2198C11.0801 13.6198 11.6801 13.7998 11.9001 13.4598Z" fill="black"/>
<path fill-rule="evenodd" clip-rule="evenodd" d="M20.4299 7.29982L19.0099 8.39982H18.9999C19.8999 9.78982 20.4299 11.4398 20.4299 13.2198C20.4299 18.1298 16.4399 22.1198 11.5299 22.1198C6.61988 22.1198 2.62988 17.8998 2.62988 13.2198C2.62988 8.53983 6.25988 4.69982 10.8599 4.34982V3.16982H9.03988V1.81982H14.0299V3.16982H12.2099V4.34982C14.5146 4.52886 16.6592 5.59758 18.1899 7.32982L19.5999 6.22982L20.4299 7.29982ZM3.97988 13.2298C3.97988 17.3898 7.35988 20.7798 11.5299 20.7798C15.6899 20.7798 19.0799 17.3898 19.0799 13.2298C19.0799 9.06982 15.6899 5.67982 11.5299 5.67982C7.36988 5.67982 3.97988 9.06982 3.97988 13.2298Z" fill="black"/>
</svg>
