<svg width="16" height="16" viewBox="0 0 16 16" fill="none" xmlns="http://www.w3.org/2000/svg">
<path fill-rule="evenodd" clip-rule="evenodd" d="M3.40673 8.81312C3.40673 6.45312 5.32673 4.53312 7.68673 4.53312C10.0467 4.53312 11.9667 6.45312 11.9667 8.81312C11.9667 11.1731 10.0467 13.0931 7.68673 13.0931C5.32673 13.0931 3.40673 11.1731 3.40673 8.81312ZM4.30673 8.81312C4.30673 10.6798 5.82673 12.1931 7.68673 12.1931V12.1998C9.5534 12.1998 11.0667 10.6798 11.0667 8.81979C11.0667 8.09312 10.8334 7.42645 10.4401 6.87312L8.68673 9.46645C8.4734 9.80645 8.10007 10.0131 7.68673 10.0131C7.4017 10.0122 7.12639 9.90937 6.91057 9.72317C6.69475 9.53698 6.55266 9.27972 6.50999 8.9979C6.46731 8.71607 6.52686 8.42828 6.67788 8.18653C6.8289 7.94479 7.06141 7.76504 7.3334 7.67979L10.3201 6.71979C9.70007 5.93979 8.7534 5.43312 7.68673 5.43312C5.82007 5.43312 4.30673 6.94645 4.30673 8.81312ZM7.9334 8.97312L8.40007 8.27979V8.27312L7.60007 8.53312C7.4734 8.57312 7.38673 8.68645 7.38673 8.81312C7.38673 9.07979 7.78673 9.19979 7.9334 8.97312Z" fill="black"/>
<path fill-rule="evenodd" clip-rule="evenodd" d="M13.6199 4.86647L12.6733 5.5998H12.6666C13.2666 6.52647 13.6199 7.62647 13.6199 8.81313C13.6199 12.0865 10.9599 14.7465 7.68658 14.7465C4.41325 14.7465 1.75325 11.9331 1.75325 8.81313C1.75325 5.69314 4.17325 3.13313 7.23992 2.8998V2.11313H6.02658V1.21313H9.35325V2.11313H8.13992V2.8998C9.67638 3.01916 11.1061 3.73164 12.1266 4.88647L13.0666 4.15313L13.6199 4.86647ZM2.65325 8.8198C2.65325 11.5931 4.90658 13.8531 7.68658 13.8531C10.4599 13.8531 12.7199 11.5931 12.7199 8.8198C12.7199 6.04647 10.4599 3.78647 7.68658 3.78647C4.91325 3.78647 2.65325 6.04647 2.65325 8.8198Z" fill="black"/>
</svg>
