<svg width="16" height="16" viewBox="0 0 16 16" fill="none" xmlns="http://www.w3.org/2000/svg">
<path d="M3.66668 13.1165C4.49962 13.114 5.3034 12.8096 5.92915 12.2599C6.5549 11.7101 6.96022 10.9522 7.07001 10.1265H7.80668L9.99335 5.77988L10.5 6.75322C9.7824 7.21416 9.26675 7.93056 9.05747 8.75738C8.84819 9.5842 8.96091 10.4597 9.37281 11.2065C9.78472 11.9533 10.465 12.5158 11.276 12.7799C12.087 13.044 12.968 12.9901 13.7407 12.6291C14.5134 12.268 15.1201 11.6269 15.4379 10.8354C15.7557 10.0439 15.7608 9.16123 15.4523 8.36609C15.1437 7.57096 14.5446 6.92276 13.7761 6.55276C13.0077 6.18275 12.1273 6.11857 11.3133 6.37322L9.96001 3.77988H11.3333C11.3915 3.7804 11.4472 3.80375 11.4883 3.8449C11.5295 3.88604 11.5528 3.9417 11.5533 3.99988V4.37988H12.4467V3.99988C12.4472 3.85322 12.4188 3.70788 12.3631 3.5722C12.3075 3.43651 12.2256 3.31313 12.1222 3.20911C12.0188 3.10509 11.8959 3.02247 11.7605 2.96598C11.6252 2.90949 11.48 2.88023 11.3333 2.87988H8.47335L9.52001 4.88655H5.69468L5.10668 3.77988H6.07335L5.59335 2.87988H2.78001L3.26001 3.77988H4.08735L4.92735 5.35988V5.36655L4.42068 6.30655C4.17362 6.24908 3.92099 6.2189 3.66735 6.21655C3.21429 6.21655 2.76566 6.30579 2.34709 6.47917C1.92852 6.65254 1.54819 6.90667 1.22783 7.22703C0.907466 7.54739 0.653341 7.92772 0.479962 8.34629C0.306583 8.76487 0.217346 9.21349 0.217346 9.66655C0.217346 10.1196 0.306583 10.5682 0.479962 10.9868C0.653341 11.4054 0.907466 11.7857 1.22783 12.1061C1.54819 12.4264 1.92852 12.6806 2.34709 12.8539C2.76566 13.0273 3.21362 13.1165 3.66668 13.1165ZM12.1933 9.98655H13.2067L11.74 7.18655C11.934 7.13788 12.1333 7.11322 12.3333 7.11322C12.8383 7.11322 13.332 7.26297 13.7519 7.54353C14.1718 7.82409 14.4991 8.22287 14.6923 8.68943C14.8856 9.15599 14.9361 9.66938 14.8376 10.1647C14.7391 10.66 14.4959 11.1149 14.1388 11.472C13.7817 11.8291 13.3268 12.0723 12.8315 12.1708C12.3362 12.2693 11.8228 12.2188 11.3562 12.0255C10.8897 11.8323 10.4909 11.505 10.2103 11.0851C9.92976 10.6652 9.78001 10.1716 9.78001 9.66655C9.78197 9.24668 9.8862 8.8336 10.0837 8.46305C10.2811 8.09251 10.5659 7.77565 10.9133 7.53988L12.1933 9.98655ZM8.98001 5.77988L7.61601 8.50122L6.16935 5.77988H8.98001ZM5.43335 6.31322L6.98201 9.22722H3.86668L5.43335 6.31322ZM3.66668 7.11655C3.76735 7.11988 3.86801 7.12922 3.96735 7.14388L2.91401 9.10655L3.44068 10.1265H6.17401C6.08623 10.6027 5.86462 11.0439 5.53512 11.3986C5.20563 11.7534 4.7819 12.0069 4.31354 12.1295C3.84518 12.2521 3.35158 12.2387 2.89054 12.091C2.4295 11.9432 2.02011 11.6671 1.71029 11.2951C1.40047 10.9231 1.20305 10.4705 1.14116 9.9903C1.07926 9.51013 1.15545 9.02227 1.36079 8.58383C1.56614 8.1454 1.89214 7.77454 2.30064 7.51468C2.70913 7.25482 3.18254 7.11672 3.66668 7.11655Z" fill="black"/>
</svg>
