<svg width="17" height="16" viewBox="0 0 17 16" fill="none" xmlns="http://www.w3.org/2000/svg">
<g clip-path="url(#clip0_15_1774)">
<path d="M4.41662 13.1165C5.24956 13.114 6.05334 12.8096 6.67909 12.2599C7.30484 11.7101 7.71015 10.9522 7.81995 10.1265H8.55662L10.7433 5.77988L11.25 6.75322C10.5323 7.21416 10.0167 7.93056 9.80741 8.75738C9.59813 9.5842 9.71085 10.4597 10.1228 11.2065C10.5347 11.9533 11.215 12.5158 12.0259 12.7799C12.8369 13.044 13.7179 12.9901 14.4907 12.6291C15.2634 12.268 15.87 11.6269 16.1878 10.8354C16.5056 10.0439 16.5107 9.16123 16.2022 8.36609C15.8937 7.57096 15.2945 6.92276 14.5261 6.55276C13.7576 6.18275 12.8773 6.11857 12.0633 6.37322L10.71 3.77988H12.0833C12.1415 3.7804 12.1971 3.80375 12.2383 3.8449C12.2794 3.88604 12.3028 3.9417 12.3033 3.99988V4.37988H13.1966V3.99988C13.1971 3.85322 13.1688 3.70788 13.1131 3.5722C13.0574 3.43651 12.9755 3.31313 12.8721 3.20911C12.7687 3.10509 12.6458 3.02247 12.5105 2.96598C12.3751 2.90949 12.23 2.88023 12.0833 2.87988H9.22329L10.27 4.88655H6.44462L5.85662 3.77988H6.82328L6.34329 2.87988H3.52995L4.00995 3.77988H4.83729L5.67729 5.35988V5.36655L5.17062 6.30655C4.92356 6.24908 4.67093 6.2189 4.41729 6.21655C3.96422 6.21655 3.5156 6.30579 3.09703 6.47917C2.67845 6.65254 2.29813 6.90667 1.97777 7.22703C1.6574 7.54739 1.40328 7.92772 1.2299 8.34629C1.05652 8.76487 0.967285 9.21349 0.967285 9.66655C0.967285 10.1196 1.05652 10.5682 1.2299 10.9868C1.40328 11.4054 1.6574 11.7857 1.97777 12.1061C2.29813 12.4264 2.67845 12.6806 3.09703 12.8539C3.5156 13.0273 3.96356 13.1165 4.41662 13.1165ZM12.9433 9.98655H13.9566L12.49 7.18655C12.684 7.13788 12.8833 7.11322 13.0833 7.11322C13.5883 7.11322 14.0819 7.26297 14.5018 7.54353C14.9217 7.82409 15.249 8.22287 15.4423 8.68943C15.6355 9.15599 15.6861 9.66938 15.5876 10.1647C15.489 10.66 15.2459 11.1149 14.8888 11.472C14.5317 11.8291 14.0767 12.0723 13.5814 12.1708C13.0861 12.2693 12.5727 12.2188 12.1062 12.0255C11.6396 11.8323 11.2408 11.505 10.9603 11.0851C10.6797 10.6652 10.53 10.1716 10.53 9.66655C10.5319 9.24668 10.6361 8.8336 10.8336 8.46305C11.0311 8.09251 11.3158 7.77565 11.6633 7.53988L12.9433 9.98655ZM9.72995 5.77988L8.36595 8.50122L6.91928 5.77988H9.72995ZM6.18329 6.31322L7.73195 9.22722H4.61662L6.18329 6.31322ZM4.41662 7.11655C4.51729 7.11988 4.61795 7.12922 4.71729 7.14388L3.66395 9.10655L4.19062 10.1265H6.92395C6.83617 10.6027 6.61456 11.0439 6.28506 11.3986C5.95557 11.7534 5.53184 12.0069 5.06348 12.1295C4.59512 12.2521 4.10152 12.2387 3.64048 12.091C3.17944 11.9432 2.77004 11.6671 2.46023 11.2951C2.15041 10.9231 1.95299 10.4705 1.8911 9.9903C1.8292 9.51013 1.90538 9.02227 2.11073 8.58383C2.31608 8.1454 2.64208 7.77454 3.05058 7.51468C3.45907 7.25482 3.93248 7.11672 4.41662 7.11655Z" fill="#494950"/>
</g>
<defs>
<clipPath id="clip0_15_1774">
<rect width="16" height="16" fill="white" transform="translate(0.75)"/>
</clipPath>
</defs>
</svg>
