<svg width="24" height="24" viewBox="0 0 24 24" fill="none" xmlns="http://www.w3.org/2000/svg">
<path d="M5.49999 19.6749C6.7494 19.6711 7.95507 19.2146 8.8937 18.3899C9.83233 17.5653 10.4403 16.4285 10.605 15.1899H11.71L14.99 8.66995L15.75 10.1299C14.6736 10.8214 13.9001 11.896 13.5862 13.1362C13.2723 14.3764 13.4413 15.6896 14.0592 16.8099C14.677 17.9301 15.6975 18.7737 16.914 19.1699C18.1304 19.5661 19.452 19.4852 20.6111 18.9437C21.7701 18.4022 22.6801 17.4404 23.1568 16.2532C23.6335 15.066 23.6412 13.742 23.1784 12.5493C22.7156 11.3566 21.8169 10.3843 20.6642 9.82925C19.5115 9.27424 18.191 9.17797 16.97 9.55995L14.94 5.66995H17C17.0873 5.67073 17.1707 5.70575 17.2325 5.76747C17.2942 5.82918 17.3292 5.91267 17.33 5.99995V6.56995H18.67V5.99995C18.6708 5.77995 18.6282 5.56195 18.5447 5.35842C18.4611 5.15488 18.3383 4.96981 18.1832 4.81378C18.0281 4.65775 17.8438 4.53383 17.6408 4.44909C17.4377 4.36436 17.22 4.32047 17 4.31995H12.71L14.28 7.32995H8.54199L7.65999 5.66995H9.10999L8.38999 4.31995H4.16999L4.88999 5.66995H6.13099L7.39099 8.03995V8.04995L6.63099 9.45995C6.2604 9.37374 5.88146 9.32847 5.50099 9.32495C4.8214 9.32495 4.14846 9.4588 3.5206 9.71887C2.89274 9.97894 2.32225 10.3601 1.84171 10.8407C1.36117 11.3212 0.97998 11.8917 0.719912 12.5196C0.459844 13.1474 0.325989 13.8204 0.325989 14.4999C0.325989 15.1795 0.459844 15.8525 0.719912 16.4803C0.97998 17.1082 1.36117 17.6787 1.84171 18.1592C2.32225 18.6398 2.89274 19.021 3.5206 19.281C4.14846 19.5411 4.8204 19.6749 5.49999 19.6749ZM18.29 14.9799H19.81L17.61 10.7799C17.901 10.7069 18.2 10.6699 18.5 10.6699C19.2575 10.6699 19.998 10.8946 20.6278 11.3154C21.2577 11.7363 21.7486 12.3344 22.0384 13.0343C22.3283 13.7341 22.4042 14.5042 22.2564 15.2471C22.1086 15.9901 21.7438 16.6725 21.2082 17.2082C20.6726 17.7438 19.9901 18.1086 19.2472 18.2564C18.5042 18.4041 17.7342 18.3283 17.0343 18.0384C16.3345 17.7485 15.7363 17.2576 15.3155 16.6278C14.8946 15.9979 14.67 15.2574 14.67 14.4999C14.6729 13.8701 14.8293 13.2505 15.1255 12.6947C15.4217 12.1389 15.8488 11.6636 16.37 11.3099L18.29 14.9799ZM13.47 8.66995L11.424 12.7519L9.25399 8.66995H13.47ZM8.14999 9.46995L10.473 13.8409H5.79999L8.14999 9.46995ZM5.49999 10.6749C5.65099 10.6799 5.80199 10.6939 5.95099 10.7159L4.37099 13.6599L5.16099 15.1899H9.26099C9.12931 15.9041 8.79689 16.566 8.30265 17.0981C7.80842 17.6302 7.17281 18.0104 6.47028 18.1943C5.76774 18.3783 5.02734 18.3582 4.33578 18.1366C3.64422 17.9149 3.03013 17.5008 2.5654 16.9428C2.10067 16.3847 1.80455 15.7058 1.7117 14.9856C1.61886 14.2653 1.73314 13.5335 2.04116 12.8759C2.34917 12.2182 2.83818 11.6619 3.45092 11.2721C4.06367 10.8824 4.77378 10.6752 5.49999 10.6749Z" fill="black"/>
</svg>
