<svg width="24" height="24" viewBox="0 0 24 24" fill="none" xmlns="http://www.w3.org/2000/svg">
<path d="M5.49999 19.675C6.7494 19.6712 7.95507 19.2146 8.8937 18.39C9.83233 17.5654 10.4403 16.4285 10.605 15.19H11.71L14.99 8.67001L15.75 10.13C14.6736 10.8214 13.9001 11.896 13.5862 13.1363C13.2723 14.3765 13.4413 15.6897 14.0592 16.8099C14.677 17.9302 15.6975 18.7738 16.914 19.17C18.1304 19.5662 19.452 19.4853 20.6111 18.9438C21.7701 18.4022 22.6801 17.4405 23.1568 16.2533C23.6335 15.066 23.6412 13.742 23.1784 12.5493C22.7156 11.3566 21.8169 10.3843 20.6642 9.82932C19.5115 9.2743 18.191 9.17804 16.97 9.56001L14.94 5.67001H17C17.0873 5.67079 17.1707 5.70581 17.2325 5.76753C17.2942 5.82925 17.3292 5.91273 17.33 6.00001V6.57001H18.67V6.00001C18.6708 5.78001 18.6282 5.56201 18.5447 5.35848C18.4611 5.15494 18.3383 4.96987 18.1832 4.81384C18.0281 4.65782 17.8438 4.53389 17.6408 4.44915C17.4377 4.36442 17.22 4.32053 17 4.32001H12.71L14.28 7.33001H8.54199L7.65999 5.67001H9.10999L8.38999 4.32001H4.16999L4.88999 5.67001H6.13099L7.39099 8.04001V8.05001L6.63099 9.46001C6.2604 9.3738 5.88146 9.32853 5.50099 9.32501C4.8214 9.32501 4.14846 9.45886 3.5206 9.71893C2.89274 9.979 2.32225 10.3602 1.84171 10.8407C1.36117 11.3213 0.97998 11.8918 0.719912 12.5196C0.459844 13.1475 0.325989 13.8204 0.325989 14.5C0.325989 15.1796 0.459844 15.8525 0.719912 16.4804C0.97998 17.1083 1.36117 17.6787 1.84171 18.1593C2.32225 18.6398 2.89274 19.021 3.5206 19.2811C4.14846 19.5412 4.8204 19.675 5.49999 19.675ZM18.29 14.98H19.81L17.61 10.78C17.901 10.707 18.2 10.67 18.5 10.67C19.2575 10.67 19.998 10.8946 20.6278 11.3155C21.2577 11.7363 21.7486 12.3345 22.0384 13.0343C22.3283 13.7342 22.4042 14.5043 22.2564 15.2472C22.1086 15.9902 21.7438 16.6726 21.2082 17.2082C20.6726 17.7439 19.9901 18.1086 19.2472 18.2564C18.5042 18.4042 17.7342 18.3283 17.0343 18.0385C16.3345 17.7486 15.7363 17.2577 15.3155 16.6278C14.8946 15.998 14.67 15.2575 14.67 14.5C14.6729 13.8702 14.8293 13.2506 15.1255 12.6948C15.4217 12.1389 15.8488 11.6637 16.37 11.31L18.29 14.98ZM13.47 8.67001L11.424 12.752L9.25399 8.67001H13.47ZM8.14999 9.47001L10.473 13.841H5.79999L8.14999 9.47001ZM5.49999 10.675C5.65099 10.68 5.80199 10.694 5.95099 10.716L4.37099 13.66L5.16099 15.19H9.26099C9.12931 15.9042 8.79689 16.5661 8.30265 17.0981C7.80842 17.6302 7.17281 18.0105 6.47028 18.1944C5.76774 18.3783 5.02734 18.3583 4.33578 18.1366C3.64422 17.915 3.03013 17.5009 2.5654 16.9428C2.10067 16.3848 1.80455 15.7059 1.7117 14.9856C1.61886 14.2654 1.73314 13.5336 2.04116 12.8759C2.34917 12.2183 2.83818 11.662 3.45092 11.2722C4.06367 10.8824 4.77378 10.6753 5.49999 10.675Z" fill="black"/>
</svg>
