<svg width="17" height="16" viewBox="0 0 17 16" fill="none" xmlns="http://www.w3.org/2000/svg">
<g clip-path="url(#clip0_15_1875)">
<path d="M4.16662 13.1165C4.99956 13.114 5.80334 12.8096 6.42909 12.2599C7.05484 11.7101 7.46015 10.9522 7.56995 10.1265H8.30662L10.4933 5.77988L11 6.75322C10.2823 7.21416 9.76669 7.93056 9.55741 8.75738C9.34813 9.5842 9.46085 10.4597 9.87275 11.2065C10.2847 11.9533 10.965 12.5158 11.7759 12.7799C12.5869 13.044 13.4679 12.9901 14.2407 12.6291C15.0134 12.268 15.62 11.6269 15.9378 10.8354C16.2556 10.0439 16.2607 9.16123 15.9522 8.36609C15.6437 7.57096 15.0445 6.92276 14.2761 6.55276C13.5076 6.18275 12.6273 6.11857 11.8133 6.37322L10.46 3.77988H11.8333C11.8915 3.7804 11.9471 3.80375 11.9883 3.8449C12.0294 3.88604 12.0528 3.9417 12.0533 3.99988V4.37988H12.9466V3.99988C12.9471 3.85322 12.9188 3.70788 12.8631 3.5722C12.8074 3.43651 12.7255 3.31313 12.6221 3.20911C12.5187 3.10509 12.3958 3.02247 12.2605 2.96598C12.1251 2.90949 11.98 2.88023 11.8333 2.87988H8.97329L10.02 4.88655H6.19462L5.60662 3.77988H6.57328L6.09329 2.87988H3.27995L3.75995 3.77988H4.58729L5.42729 5.35988V5.36655L4.92062 6.30655C4.67356 6.24908 4.42093 6.2189 4.16729 6.21655C3.71422 6.21655 3.2656 6.30579 2.84703 6.47917C2.42845 6.65254 2.04813 6.90667 1.72777 7.22703C1.4074 7.54739 1.15328 7.92772 0.979901 8.34629C0.806522 8.76487 0.717285 9.21349 0.717285 9.66655C0.717285 10.1196 0.806522 10.5682 0.979901 10.9868C1.15328 11.4054 1.4074 11.7857 1.72777 12.1061C2.04813 12.4264 2.42845 12.6806 2.84703 12.8539C3.2656 13.0273 3.71356 13.1165 4.16662 13.1165ZM12.6933 9.98655H13.7066L12.24 7.18655C12.434 7.13788 12.6333 7.11322 12.8333 7.11322C13.3383 7.11322 13.8319 7.26297 14.2518 7.54353C14.6717 7.82409 14.999 8.22287 15.1923 8.68943C15.3855 9.15599 15.4361 9.66938 15.3376 10.1647C15.239 10.66 14.9959 11.1149 14.6388 11.472C14.2817 11.8291 13.8267 12.0723 13.3314 12.1708C12.8361 12.2693 12.3227 12.2188 11.8562 12.0255C11.3896 11.8323 10.9908 11.505 10.7103 11.0851C10.4297 10.6652 10.28 10.1716 10.28 9.66655C10.2819 9.24668 10.3861 8.8336 10.5836 8.46305C10.7811 8.09251 11.0658 7.77565 11.4133 7.53988L12.6933 9.98655ZM9.47995 5.77988L8.11595 8.50122L6.66928 5.77988H9.47995ZM5.93329 6.31322L7.48195 9.22722H4.36662L5.93329 6.31322ZM4.16662 7.11655C4.26729 7.11988 4.36795 7.12922 4.46729 7.14388L3.41395 9.10655L3.94062 10.1265H6.67395C6.58617 10.6027 6.36456 11.0439 6.03506 11.3986C5.70557 11.7534 5.28184 12.0069 4.81348 12.1295C4.34512 12.2521 3.85152 12.2387 3.39048 12.091C2.92944 11.9432 2.52004 11.6671 2.21023 11.2951C1.90041 10.9231 1.70299 10.4705 1.6411 9.9903C1.5792 9.51013 1.65538 9.02227 1.86073 8.58383C2.06608 8.1454 2.39208 7.77454 2.80058 7.51468C3.20907 7.25482 3.68248 7.11672 4.16662 7.11655Z" fill="#494950"/>
</g>
<defs>
<clipPath id="clip0_15_1875">
<rect width="16" height="16" fill="white" transform="translate(0.5)"/>
</clipPath>
</defs>
</svg>
