<svg width="24" height="24" viewBox="0 0 24 24" fill="none" xmlns="http://www.w3.org/2000/svg">
<path d="M5.50005 19.6748C6.74946 19.671 7.95513 19.2145 8.89376 18.3898C9.83239 17.5652 10.4404 16.4283 10.605 15.1898H11.71L14.99 8.66982L15.75 10.1298C14.6736 10.8212 13.9002 11.8958 13.5862 13.1361C13.2723 14.3763 13.4414 15.6895 14.0593 16.8097C14.6771 17.93 15.6976 18.7736 16.914 19.1698C18.1305 19.566 19.452 19.4851 20.6111 18.9436C21.7702 18.4021 22.6802 17.4403 23.1568 16.2531C23.6335 15.0658 23.6412 13.7418 23.1784 12.5491C22.7157 11.3564 21.8169 10.3841 20.6642 9.82913C19.5116 9.27412 18.191 9.17785 16.97 9.55982L14.94 5.66982H17C17.0873 5.67061 17.1708 5.70563 17.2325 5.76734C17.2942 5.82906 17.3293 5.91254 17.33 5.99982V6.56982H18.67V5.99982C18.6708 5.77982 18.6283 5.56182 18.5447 5.35829C18.4612 5.15476 18.3384 4.96969 18.1833 4.81366C18.0282 4.65763 17.8439 4.53371 17.6408 4.44897C17.4378 4.36423 17.2201 4.32035 17 4.31982H12.71L14.28 7.32982H8.54205L7.66005 5.66982H9.11005L8.39005 4.31982H4.17005L4.89005 5.66982H6.13105L7.39105 8.03982V8.04982L6.63105 9.45982C6.26046 9.37362 5.88152 9.32835 5.50105 9.32482C4.82146 9.32482 4.14852 9.45868 3.52066 9.71875C2.8928 9.97882 2.32232 10.36 1.84177 10.8405C1.36123 11.3211 0.980041 11.8916 0.719973 12.5194C0.459905 13.1473 0.32605 13.8202 0.32605 14.4998C0.32605 15.1794 0.459905 15.8524 0.719973 16.4802C0.980041 17.1081 1.36123 17.6786 1.84177 18.1591C2.32232 18.6396 2.8928 19.0208 3.52066 19.2809C4.14852 19.541 4.82046 19.6748 5.50005 19.6748ZM18.2901 14.9798H19.81L17.6101 10.7798C17.9011 10.7068 18.2 10.6698 18.5 10.6698C19.2576 10.6698 19.998 10.8944 20.6279 11.3153C21.2577 11.7361 21.7486 12.3343 22.0385 13.0341C22.3284 13.734 22.4042 14.5041 22.2565 15.247C22.1087 15.99 21.7439 16.6724 21.2083 17.208C20.6726 17.7437 19.9902 18.1084 19.2472 18.2562C18.5043 18.404 17.7342 18.3282 17.0344 18.0383C16.3345 17.7484 15.7364 17.2575 15.3155 16.6277C14.8947 15.9978 14.67 15.2573 14.67 14.4998C14.673 13.87 14.8293 13.2504 15.1255 12.6946C15.4217 12.1388 15.8489 11.6635 16.3701 11.3098L18.2901 14.9798ZM13.47 8.66982L11.424 12.7518L9.25405 8.66982H13.47ZM8.15005 9.46982L10.473 13.8408H5.80005L8.15005 9.46982ZM5.50005 10.6748C5.65105 10.6798 5.80205 10.6938 5.95105 10.7158L4.37105 13.6598L5.16105 15.1898H9.26105C9.12937 15.904 8.79695 16.5659 8.30272 17.098C7.80848 17.63 7.17288 18.0103 6.47034 18.1942C5.7678 18.3781 5.0274 18.3581 4.33584 18.1364C3.64429 17.9148 3.03019 17.5007 2.56546 16.9426C2.10073 16.3846 1.80461 15.7057 1.71177 14.9855C1.61892 14.2652 1.7332 13.5334 2.04122 12.8757C2.34924 12.2181 2.83824 11.6618 3.45099 11.272C4.06373 10.8822 4.77384 10.6751 5.50005 10.6748Z" fill="black"/>
</svg>
