<svg width="17" height="16" viewBox="0 0 17 16" fill="none" xmlns="http://www.w3.org/2000/svg">
<g clip-path="url(#clip0_1_2005)">
<path d="M4.41668 13.1167C5.24962 13.1141 6.0534 12.8098 6.67915 12.26C7.3049 11.7103 7.71022 10.9523 7.82001 10.1267H8.55668L10.7433 5.78L11.25 6.75334C10.5324 7.21428 10.0168 7.93068 9.80747 8.7575C9.59819 9.58433 9.71091 10.4598 10.1228 11.2066C10.5347 11.9535 11.215 12.5159 12.026 12.78C12.837 13.0441 13.718 12.9902 14.4907 12.6292C15.2634 12.2682 15.8701 11.627 16.1879 10.8355C16.5057 10.044 16.5108 9.16135 16.2023 8.36622C15.8937 7.57108 15.2946 6.92289 14.5261 6.55288C13.7577 6.18287 12.8773 6.11869 12.0633 6.37334L10.71 3.78H12.0833C12.1415 3.78053 12.1972 3.80387 12.2383 3.84502C12.2795 3.88616 12.3028 3.94182 12.3033 4V4.38H13.1967V4C13.1972 3.85334 13.1688 3.708 13.1131 3.57232C13.0575 3.43663 12.9756 3.31325 12.8722 3.20923C12.7688 3.10521 12.6459 3.02259 12.5105 2.9661C12.3752 2.90961 12.23 2.88035 12.0833 2.88H9.22335L10.27 4.88667H6.44468L5.85668 3.78H6.82335L6.34335 2.88H3.53001L4.01001 3.78H4.83735L5.67735 5.36V5.36667L5.17068 6.30667C4.92362 6.2492 4.67099 6.21902 4.41735 6.21667C3.96429 6.21667 3.51566 6.30591 3.09709 6.47929C2.67852 6.65267 2.29819 6.90679 1.97783 7.22715C1.65747 7.54752 1.40334 7.92784 1.22996 8.34641C1.05658 8.76499 0.967346 9.21361 0.967346 9.66667C0.967346 10.1197 1.05658 10.5684 1.22996 10.9869C1.40334 11.4055 1.65747 11.7858 1.97783 12.1062C2.29819 12.4266 2.67852 12.6807 3.09709 12.8541C3.51566 13.0274 3.96362 13.1167 4.41668 13.1167ZM12.9433 9.98667H13.9567L12.49 7.18667C12.684 7.138 12.8833 7.11334 13.0833 7.11334C13.5883 7.11334 14.082 7.26309 14.5019 7.54365C14.9218 7.82422 15.2491 8.22299 15.4423 8.68955C15.6356 9.15611 15.6861 9.6695 15.5876 10.1648C15.4891 10.6601 15.2459 11.1151 14.8888 11.4722C14.5317 11.8292 14.0768 12.0724 13.5815 12.1709C13.0862 12.2695 12.5728 12.2189 12.1062 12.0256C11.6397 11.8324 11.2409 11.5051 10.9603 11.0852C10.6798 10.6653 10.53 10.1717 10.53 9.66667C10.532 9.2468 10.6362 8.83372 10.8337 8.46318C11.0311 8.09263 11.3159 7.77577 11.6633 7.54001L12.9433 9.98667ZM9.73001 5.78L8.36601 8.50134L6.91935 5.78H9.73001ZM6.18335 6.31334L7.73201 9.22734H4.61668L6.18335 6.31334ZM4.41668 7.11667C4.51735 7.12001 4.61801 7.12934 4.71735 7.144L3.66401 9.10667L4.19068 10.1267H6.92401C6.83623 10.6028 6.61462 11.044 6.28512 11.3988C5.95563 11.7535 5.5319 12.007 5.06354 12.1296C4.59518 12.2522 4.10158 12.2389 3.64054 12.0911C3.1795 11.9433 2.77011 11.6673 2.46029 11.2952C2.15047 10.9232 1.95305 10.4706 1.89116 9.99043C1.82926 9.51026 1.90545 9.02239 2.11079 8.58395C2.31614 8.14552 2.64214 7.77466 3.05064 7.5148C3.45913 7.25494 3.93254 7.11684 4.41668 7.11667Z" fill="#494950"/>
</g>
<defs>
<clipPath id="clip0_1_2005">
<rect width="16" height="16" fill="white" transform="translate(0.75)"/>
</clipPath>
</defs>
</svg>
