<svg width="17" height="16" viewBox="0 0 17 16" fill="none" xmlns="http://www.w3.org/2000/svg">
<g clip-path="url(#clip0_1_1652)">
<path d="M4.16667 13.1167C4.9996 13.1141 5.80339 12.8098 6.42914 12.26C7.05489 11.7103 7.4602 10.9523 7.57 10.1267H8.30667L10.4933 5.78L11 6.75334C10.2824 7.21428 9.76674 7.93068 9.55746 8.7575C9.34817 9.58433 9.4609 10.4598 9.8728 11.2066C10.2847 11.9535 10.965 12.5159 11.776 12.78C12.587 13.0441 13.468 12.9902 14.2407 12.6292C15.0134 12.2682 15.6201 11.627 15.9379 10.8355C16.2556 10.044 16.2608 9.16135 15.9523 8.36622C15.6437 7.57108 15.0446 6.92289 14.2761 6.55288C13.5077 6.18287 12.6273 6.11869 11.8133 6.37334L10.46 3.78H11.8333C11.8915 3.78053 11.9472 3.80387 11.9883 3.84502C12.0295 3.88616 12.0528 3.94182 12.0533 4V4.38H12.9467V4C12.9472 3.85334 12.9188 3.708 12.8631 3.57232C12.8074 3.43663 12.7256 3.31325 12.6222 3.20923C12.5188 3.10521 12.3959 3.02259 12.2605 2.9661C12.1252 2.90961 11.98 2.88035 11.8333 2.88H8.97333L10.02 4.88667H6.19467L5.60667 3.78H6.57333L6.09333 2.88H3.28L3.76 3.78H4.58733L5.42733 5.36V5.36667L4.92067 6.30667C4.6736 6.2492 4.42098 6.21902 4.16733 6.21667C3.71427 6.21667 3.26565 6.30591 2.84708 6.47929C2.4285 6.65267 2.04818 6.90679 1.72781 7.22715C1.40745 7.54752 1.15333 7.92784 0.979948 8.34641C0.80657 8.76499 0.717333 9.21361 0.717333 9.66667C0.717333 10.1197 0.80657 10.5684 0.979948 10.9869C1.15333 11.4055 1.40745 11.7858 1.72781 12.1062C2.04818 12.4266 2.4285 12.6807 2.84708 12.8541C3.26565 13.0274 3.71361 13.1167 4.16667 13.1167ZM12.6933 9.98667H13.7067L12.24 7.18667C12.434 7.138 12.6333 7.11334 12.8333 7.11334C13.3383 7.11334 13.832 7.26309 14.2519 7.54365C14.6718 7.82422 14.999 8.22299 15.1923 8.68955C15.3856 9.15611 15.4361 9.6695 15.3376 10.1648C15.2391 10.6601 14.9959 11.1151 14.6388 11.4722C14.2817 11.8292 13.8268 12.0724 13.3315 12.1709C12.8362 12.2695 12.3228 12.2189 11.8562 12.0256C11.3897 11.8324 10.9909 11.5051 10.7103 11.0852C10.4298 10.6653 10.28 10.1717 10.28 9.66667C10.282 9.2468 10.3862 8.83372 10.5837 8.46318C10.7811 8.09263 11.0659 7.77577 11.4133 7.54001L12.6933 9.98667ZM9.48 5.78L8.116 8.50134L6.66933 5.78H9.48ZM5.93333 6.31334L7.482 9.22734H4.36667L5.93333 6.31334ZM4.16667 7.11667C4.26733 7.12001 4.368 7.12934 4.46733 7.144L3.414 9.10667L3.94067 10.1267H6.674C6.58622 10.6028 6.3646 11.044 6.03511 11.3988C5.70562 11.7535 5.28188 12.007 4.81352 12.1296C4.34517 12.2522 3.85157 12.2389 3.39053 12.0911C2.92949 11.9433 2.52009 11.6673 2.21027 11.2952C1.90045 10.9232 1.70304 10.4706 1.64114 9.99043C1.57925 9.51026 1.65543 9.02239 1.86078 8.58395C2.06612 8.14552 2.39213 7.77466 2.80062 7.5148C3.20912 7.25494 3.68252 7.11684 4.16667 7.11667Z" fill="#494950"/>
</g>
<defs>
<clipPath id="clip0_1_1652">
<rect width="16" height="16" fill="white" transform="translate(0.5)"/>
</clipPath>
</defs>
</svg>
