<svg width="16" height="16" viewBox="0 0 16 16" fill="none" xmlns="http://www.w3.org/2000/svg">
<g clip-path="url(#clip0_15_568)">
<path d="M6.02997 13.2901C6.7209 13.9884 7.5431 14.5431 8.44926 14.9224C9.35542 15.3017 10.3276 15.498 11.31 15.5001H13.5C14.0075 15.5048 14.4979 15.3163 14.8717 14.9728C15.2454 14.6294 15.4746 14.1567 15.5128 13.6505C15.5509 13.1443 15.3952 12.6426 15.0771 12.247C14.7591 11.8514 14.3025 11.5915 13.8 11.5201L9.95997 4.33009C9.84654 4.12266 9.69219 3.9404 9.50626 3.79437C9.32033 3.64833 9.10669 3.54156 8.87829 3.4805C8.64988 3.41945 8.41146 3.4054 8.17747 3.43919C7.94347 3.47298 7.71877 3.55392 7.51697 3.67709C7.24297 3.84709 7.02197 4.09109 6.87997 4.38009L6.60997 4.94009C6.49017 4.84693 6.39673 4.72415 6.33886 4.58386C6.28099 4.44357 6.2607 4.29062 6.27997 4.14009V2.17009C6.29679 1.98872 6.27532 1.80583 6.21693 1.63329C6.15854 1.46075 6.06454 1.3024 5.94103 1.16852C5.81752 1.03463 5.66725 0.928199 5.49996 0.856117C5.33268 0.784035 5.15211 0.747913 4.96997 0.750093C4.67854 0.750463 4.39416 0.839679 4.15474 1.00584C3.91532 1.172 3.73226 1.40721 3.62997 1.68009L2.15997 4.67009L1.20997 5.37009C0.99844 5.53245 0.825195 5.73933 0.7025 5.97608C0.579806 6.21283 0.510663 6.47365 0.499968 6.74009C0.482042 7.02348 0.526478 7.30734 0.630144 7.57169C0.73381 7.83604 0.894185 8.07444 1.09997 8.27009L6.02997 13.2901ZM1.78997 6.18009L2.18997 5.88009L7.32997 10.9501H8.74997L2.97997 5.25009L4.53997 2.10009C4.56597 2.00407 4.62145 1.91864 4.6986 1.85585C4.77575 1.79305 4.87067 1.75606 4.96997 1.75009C5.11997 1.75009 5.27997 1.79009 5.27997 2.17009V4.14009C5.27997 5.27009 5.90997 6.01009 6.88997 6.01009H7.19997L7.77997 4.82009C7.84 4.70164 7.93124 4.60184 8.04385 4.53145C8.15646 4.46107 8.28615 4.42278 8.41893 4.42072C8.55171 4.41866 8.68253 4.45291 8.79727 4.51977C8.912 4.58663 9.0063 4.68356 9.06997 4.80009L9.69997 5.97009L8.43997 6.64009V7.78009L10.17 6.86009L10.58 7.64009L9.23997 8.35009V9.49009L11.06 8.53009L11.45 9.27009L9.88997 10.1001V11.2401L11.92 10.1501L13.04 12.2401L13.2 12.5001H13.5C13.7652 12.5001 14.0195 12.6055 14.2071 12.793C14.3946 12.9805 14.5 13.2349 14.5 13.5001C14.5 13.7653 14.3946 14.0197 14.2071 14.2072C14.0195 14.3947 13.7652 14.5001 13.5 14.5001H11.31C9.59408 14.4924 7.95102 13.8057 6.73997 12.5901L1.78997 7.55009C1.69028 7.45348 1.61272 7.3364 1.56266 7.20692C1.51259 7.07744 1.4912 6.93864 1.49997 6.80009C1.50387 6.68251 1.53159 6.56694 1.58143 6.46038C1.63128 6.35381 1.70222 6.25846 1.78997 6.18009Z" fill="black"/>
</g>
<defs>
<clipPath id="clip0_15_568">
<rect width="16" height="16" fill="white"/>
</clipPath>
</defs>
</svg>
