<svg width="16" height="16" viewBox="0 0 16 16" fill="none" xmlns="http://www.w3.org/2000/svg">
<g clip-path="url(#clip0_20_55809)">
<path d="M6.03 13.2901C6.72093 13.9884 7.54313 14.5431 8.44929 14.9224C9.35545 15.3017 10.3277 15.498 11.31 15.5001H13.5C14.0076 15.5048 14.4979 15.3163 14.8717 14.9728C15.2455 14.6294 15.4747 14.1567 15.5128 13.6505C15.551 13.1443 15.3952 12.6426 15.0772 12.247C14.7591 11.8514 14.3025 11.5915 13.8 11.5201L9.96 4.33009C9.84657 4.12266 9.69222 3.9404 9.50629 3.79437C9.32036 3.64833 9.10672 3.54156 8.87832 3.4805C8.64991 3.41945 8.41149 3.4054 8.1775 3.43919C7.9435 3.47298 7.7188 3.55392 7.517 3.67709C7.243 3.84709 7.022 4.09109 6.88 4.38009L6.61 4.94009C6.4902 4.84693 6.39676 4.72415 6.33889 4.58386C6.28103 4.44357 6.26073 4.29062 6.28 4.14009V2.17009C6.29683 1.98872 6.27535 1.80583 6.21696 1.63329C6.15857 1.46075 6.06457 1.3024 5.94106 1.16852C5.81755 1.03463 5.66728 0.928199 5.49999 0.856117C5.33271 0.784035 5.15214 0.747913 4.97 0.750093C4.67857 0.750463 4.39419 0.839679 4.15477 1.00584C3.91536 1.172 3.73229 1.40721 3.63 1.68009L2.16 4.67009L1.21 5.37009C0.99847 5.53245 0.825225 5.73933 0.702531 5.97608C0.579836 6.21283 0.510693 6.47365 0.499998 6.74009C0.482073 7.02348 0.526508 7.30734 0.630175 7.57169C0.733841 7.83604 0.894215 8.07444 1.1 8.27009L6.03 13.2901ZM1.79 6.18009L2.19 5.88009L7.33 10.9501H8.75L2.98 5.25009L4.54 2.10009C4.566 2.00407 4.62148 1.91864 4.69863 1.85585C4.77578 1.79305 4.8707 1.75606 4.97 1.75009C5.12 1.75009 5.28 1.79009 5.28 2.17009V4.14009C5.28 5.27009 5.91 6.01009 6.89 6.01009H7.2L7.78 4.82009C7.84003 4.70164 7.93127 4.60184 8.04388 4.53145C8.15649 4.46107 8.28618 4.42278 8.41896 4.42072C8.55174 4.41866 8.68256 4.45291 8.7973 4.51977C8.91203 4.58663 9.00633 4.68356 9.07 4.80009L9.7 5.97009L8.44 6.64009V7.78009L10.17 6.86009L10.58 7.64009L9.24 8.35009V9.49009L11.06 8.53009L11.45 9.27009L9.89 10.1001V11.2401L11.92 10.1501L13.04 12.2401L13.2 12.5001H13.5C13.7652 12.5001 14.0196 12.6055 14.2071 12.793C14.3946 12.9805 14.5 13.2349 14.5 13.5001C14.5 13.7653 14.3946 14.0197 14.2071 14.2072C14.0196 14.3947 13.7652 14.5001 13.5 14.5001H11.31C9.59411 14.4924 7.95105 13.8057 6.74 12.5901L1.79 7.55009C1.69031 7.45348 1.61275 7.3364 1.56269 7.20692C1.51262 7.07744 1.49123 6.93864 1.5 6.80009C1.5039 6.68251 1.53162 6.56694 1.58146 6.46038C1.63131 6.35381 1.70225 6.25846 1.79 6.18009Z" fill="black"/>
</g>
<defs>
<clipPath id="clip0_20_55809">
<rect width="16" height="16" fill="white"/>
</clipPath>
</defs>
</svg>
