<svg width="16" height="16" viewBox="0 0 16 16" fill="none" xmlns="http://www.w3.org/2000/svg">
<g clip-path="url(#clip0_1_1528)">
<path d="M6.03003 13.2901C6.72096 13.9884 7.54316 14.5431 8.44932 14.9224C9.35548 15.3017 10.3277 15.498 11.31 15.5001H13.5C14.0076 15.5048 14.498 15.3163 14.8717 14.9728C15.2455 14.6294 15.4747 14.1567 15.5128 13.6505C15.551 13.1443 15.3953 12.6426 15.0772 12.247C14.7591 11.8514 14.3026 11.5915 13.8 11.5201L9.96003 4.33009C9.8466 4.12266 9.69225 3.9404 9.50632 3.79437C9.32039 3.64833 9.10675 3.54156 8.87835 3.4805C8.64994 3.41945 8.41152 3.4054 8.17753 3.43919C7.94353 3.47298 7.71883 3.55392 7.51703 3.67709C7.24303 3.84709 7.02203 4.09109 6.88003 4.38009L6.61003 4.94009C6.49023 4.84693 6.39679 4.72415 6.33893 4.58386C6.28106 4.44357 6.26076 4.29062 6.28003 4.14009V2.17009C6.29686 1.98872 6.27538 1.80583 6.21699 1.63329C6.1586 1.46075 6.0646 1.3024 5.94109 1.16852C5.81758 1.03463 5.66731 0.928199 5.50002 0.856117C5.33274 0.784035 5.15217 0.747913 4.97003 0.750093C4.6786 0.750463 4.39422 0.839679 4.1548 1.00584C3.91539 1.172 3.73232 1.40721 3.63003 1.68009L2.16003 4.67009L1.21003 5.37009C0.998501 5.53245 0.825256 5.73933 0.702561 5.97608C0.579867 6.21283 0.510724 6.47365 0.500029 6.74009C0.482103 7.02348 0.526539 7.30734 0.630205 7.57169C0.733871 7.83604 0.894246 8.07444 1.10003 8.27009L6.03003 13.2901ZM1.79003 6.18009L2.19003 5.88009L7.33003 10.9501H8.75003L2.98003 5.25009L4.54003 2.10009C4.56603 2.00407 4.62152 1.91864 4.69866 1.85585C4.77581 1.79305 4.87073 1.75606 4.97003 1.75009C5.12003 1.75009 5.28003 1.79009 5.28003 2.17009V4.14009C5.28003 5.27009 5.91003 6.01009 6.89003 6.01009H7.20003L7.78003 4.82009C7.84006 4.70164 7.9313 4.60184 8.04391 4.53145C8.15652 4.46107 8.28621 4.42278 8.41899 4.42072C8.55177 4.41866 8.68259 4.45291 8.79733 4.51977C8.91206 4.58663 9.00636 4.68356 9.07003 4.80009L9.70003 5.97009L8.44003 6.64009V7.78009L10.17 6.86009L10.58 7.64009L9.24003 8.35009V9.49009L11.06 8.53009L11.45 9.27009L9.89003 10.1001V11.2401L11.92 10.1501L13.04 12.2401L13.2 12.5001H13.5C13.7652 12.5001 14.0196 12.6055 14.2071 12.793C14.3947 12.9805 14.5 13.2349 14.5 13.5001C14.5 13.7653 14.3947 14.0197 14.2071 14.2072C14.0196 14.3947 13.7652 14.5001 13.5 14.5001H11.31C9.59414 14.4924 7.95108 13.8057 6.74003 12.5901L1.79003 7.55009C1.69034 7.45348 1.61278 7.3364 1.56272 7.20692C1.51265 7.07744 1.49126 6.93864 1.50003 6.80009C1.50394 6.68251 1.53165 6.56694 1.58149 6.46038C1.63134 6.35381 1.70228 6.25846 1.79003 6.18009Z" fill="black"/>
</g>
<defs>
<clipPath id="clip0_1_1528">
<rect width="16" height="16" fill="white"/>
</clipPath>
</defs>
</svg>
