<svg width="24" height="24" viewBox="0 0 24 24" fill="none" xmlns="http://www.w3.org/2000/svg">
<path d="M9.04501 19.9349C10.0814 20.9823 11.3147 21.8144 12.6739 22.3834C14.0332 22.9523 15.4915 23.2468 16.965 23.2499H20.25C21.0114 23.2569 21.7469 22.9742 22.3076 22.459C22.8682 21.9438 23.212 21.2348 23.2692 20.4755C23.3265 19.7163 23.0929 18.9637 22.6158 18.3703C22.1387 17.7769 21.4538 17.3871 20.7 17.2799L14.94 6.4949C14.7699 6.18374 14.5383 5.91036 14.2594 5.69131C13.9806 5.47225 13.6601 5.31209 13.3175 5.22051C12.9749 5.12894 12.6173 5.10785 12.2663 5.15854C11.9153 5.20923 11.5782 5.33063 11.2755 5.5154C10.8645 5.7704 10.533 6.1364 10.32 6.5699L9.91501 7.4099C9.73532 7.27015 9.59516 7.08598 9.50836 6.87555C9.42155 6.66511 9.3911 6.43569 9.42001 6.2099V3.2549C9.44525 2.98283 9.41304 2.7085 9.32545 2.44969C9.23787 2.19087 9.09687 1.95335 8.9116 1.75253C8.72634 1.5517 8.50093 1.39205 8.25 1.28393C7.99907 1.17581 7.72822 1.12163 7.45501 1.1249C7.01787 1.12545 6.59129 1.25927 6.23217 1.50852C5.87305 1.75776 5.59845 2.11057 5.44501 2.5199L3.24001 7.0049L1.81501 8.0549C1.49772 8.29843 1.23785 8.60875 1.05381 8.96387C0.869769 9.31899 0.766055 9.71024 0.750012 10.1099C0.723124 10.535 0.789778 10.9608 0.945277 11.3573C1.10078 11.7538 1.34134 12.1114 1.65001 12.4049L9.04501 19.9349ZM2.68501 9.2699L3.28501 8.8199L10.995 16.4249H13.125L4.47001 7.8749L6.81001 3.1499C6.84901 3.00587 6.93224 2.87772 7.04797 2.78352C7.16369 2.68933 7.30607 2.63385 7.45501 2.6249C7.68001 2.6249 7.92001 2.6849 7.92001 3.2549V6.2099C7.92001 7.9049 8.86501 9.0149 10.335 9.0149H10.8L11.67 7.2299C11.7601 7.05222 11.8969 6.90251 12.0658 6.79693C12.2347 6.69136 12.4293 6.63393 12.6285 6.63084C12.8276 6.62775 13.0239 6.67912 13.196 6.77941C13.3681 6.8797 13.5095 7.02509 13.605 7.1999L14.55 8.9549L12.66 9.9599V11.6699L15.255 10.2899L15.87 11.4599L13.86 12.5249V14.2349L16.59 12.7949L17.175 13.9049L14.835 15.1499V16.8599L17.88 15.2249L19.56 18.3599L19.8 18.7499H20.25C20.6478 18.7499 21.0294 18.9079 21.3107 19.1892C21.592 19.4705 21.75 19.8521 21.75 20.2499C21.75 20.6477 21.592 21.0293 21.3107 21.3106C21.0294 21.5919 20.6478 21.7499 20.25 21.7499H16.965C14.3912 21.7383 11.9266 20.7083 10.11 18.8849L2.68501 11.3249C2.53548 11.18 2.41915 11.0044 2.34405 10.8101C2.26895 10.6159 2.23687 10.4077 2.25001 10.1999C2.25587 10.0235 2.29744 9.85017 2.37221 9.69032C2.44698 9.53047 2.55339 9.38745 2.68501 9.2699Z" fill="black"/>
</svg>
