<svg width="17" height="16" viewBox="0 0 17 16" fill="none" xmlns="http://www.w3.org/2000/svg">
<g clip-path="url(#clip0_1_2027)">
<path d="M6.78 13.2901C7.47093 13.9884 8.29313 14.5431 9.19929 14.9224C10.1054 15.3017 11.0777 15.498 12.06 15.5001H14.25C14.7576 15.5048 15.2479 15.3163 15.6217 14.9728C15.9955 14.6294 16.2247 14.1567 16.2628 13.6505C16.301 13.1443 16.1452 12.6426 15.8272 12.247C15.5091 11.8514 15.0525 11.5915 14.55 11.5201L10.71 4.33009C10.5966 4.12266 10.4422 3.9404 10.2563 3.79437C10.0704 3.64833 9.85672 3.54156 9.62832 3.4805C9.39991 3.41945 9.16149 3.4054 8.9275 3.43919C8.6935 3.47298 8.4688 3.55392 8.267 3.67709C7.993 3.84709 7.772 4.09109 7.63 4.38009L7.36 4.94009C7.2402 4.84693 7.14676 4.72415 7.08889 4.58386C7.03103 4.44357 7.01073 4.29062 7.03 4.14009V2.17009C7.04683 1.98872 7.02535 1.80583 6.96696 1.63329C6.90857 1.46075 6.81457 1.3024 6.69106 1.16852C6.56755 1.03463 6.41728 0.928199 6.24999 0.856117C6.08271 0.784035 5.90214 0.747913 5.72 0.750093C5.42857 0.750463 5.14419 0.839679 4.90477 1.00584C4.66536 1.172 4.48229 1.40721 4.38 1.68009L2.91 4.67009L1.96 5.37009C1.74847 5.53245 1.57523 5.73933 1.45253 5.97608C1.32984 6.21283 1.26069 6.47365 1.25 6.74009C1.23207 7.02348 1.27651 7.30734 1.38017 7.57169C1.48384 7.83604 1.64422 8.07444 1.85 8.27009L6.78 13.2901ZM2.54 6.18009L2.94 5.88009L8.08 10.9501H9.5L3.73 5.25009L5.29 2.10009C5.316 2.00407 5.37148 1.91864 5.44863 1.85585C5.52578 1.79305 5.6207 1.75606 5.72 1.75009C5.87 1.75009 6.03 1.79009 6.03 2.17009V4.14009C6.03 5.27009 6.66 6.01009 7.64 6.01009H7.95L8.53 4.82009C8.59003 4.70164 8.68127 4.60184 8.79388 4.53145C8.90649 4.46107 9.03618 4.42278 9.16896 4.42072C9.30174 4.41866 9.43256 4.45291 9.5473 4.51977C9.66203 4.58663 9.75633 4.68356 9.82 4.80009L10.45 5.97009L9.19 6.64009V7.78009L10.92 6.86009L11.33 7.64009L9.99 8.35009V9.49009L11.81 8.53009L12.2 9.27009L10.64 10.1001V11.2401L12.67 10.1501L13.79 12.2401L13.95 12.5001H14.25C14.5152 12.5001 14.7696 12.6055 14.9571 12.793C15.1446 12.9805 15.25 13.2349 15.25 13.5001C15.25 13.7653 15.1446 14.0197 14.9571 14.2072C14.7696 14.3947 14.5152 14.5001 14.25 14.5001H12.06C10.3441 14.4924 8.70105 13.8057 7.49 12.5901L2.54 7.55009C2.44031 7.45348 2.36275 7.3364 2.31269 7.20692C2.26262 7.07744 2.24123 6.93864 2.25 6.80009C2.2539 6.68251 2.28162 6.56694 2.33146 6.46038C2.38131 6.35381 2.45225 6.25846 2.54 6.18009Z" fill="#494950"/>
</g>
<defs>
<clipPath id="clip0_1_2027">
<rect width="16" height="16" fill="white" transform="translate(0.75)"/>
</clipPath>
</defs>
</svg>
