<svg width="24" height="24" viewBox="0 0 24 24" fill="none" xmlns="http://www.w3.org/2000/svg">
<path d="M9.04495 19.9351C10.0813 20.9826 11.3146 21.8147 12.6739 22.3836C14.0331 22.9525 15.4915 23.247 16.965 23.2501H20.25C21.0113 23.2572 21.7469 22.9744 22.3075 22.4593C22.8682 21.9441 23.2119 21.235 23.2692 20.4758C23.3264 19.7165 23.0928 18.9639 22.6157 18.3705C22.1386 17.7771 21.4538 17.3873 20.7 17.2801L14.94 6.49514C14.7698 6.18399 14.5383 5.9106 14.2594 5.69155C13.9805 5.4725 13.66 5.31233 13.3174 5.22076C12.9748 5.12918 12.6172 5.1081 12.2662 5.15878C11.9152 5.20947 11.5782 5.33087 11.2755 5.51564C10.8645 5.77064 10.533 6.13664 10.32 6.57014L9.91495 7.41014C9.73526 7.2704 9.5951 7.08622 9.5083 6.87579C9.42149 6.66536 9.39104 6.43593 9.41995 6.21014V3.25514C9.44519 2.98308 9.41298 2.70875 9.32539 2.44993C9.23781 2.19112 9.09681 1.9536 8.91154 1.75277C8.72627 1.55195 8.50087 1.3923 8.24994 1.28418C7.99901 1.17605 7.72816 1.12187 7.45495 1.12514C7.01781 1.12569 6.59123 1.25952 6.23211 1.50876C5.87299 1.758 5.59839 2.11081 5.44495 2.52014L3.23995 7.00514L1.81495 8.05514C1.49766 8.29868 1.23779 8.60899 1.05375 8.96412C0.869708 9.31924 0.765994 9.71048 0.749951 10.1101C0.723063 10.5352 0.789717 10.961 0.945216 11.3575C1.10072 11.7541 1.34128 12.1117 1.64995 12.4051L9.04495 19.9351ZM2.68495 9.27014L3.28495 8.82014L10.995 16.4251H13.125L4.46995 7.87514L6.80995 3.15014C6.84895 3.00611 6.93218 2.87796 7.04791 2.78377C7.16363 2.68957 7.30601 2.63409 7.45495 2.62514C7.67995 2.62514 7.91995 2.68514 7.91995 3.25514V6.21014C7.91995 7.90514 8.86495 9.01514 10.335 9.01514H10.8L11.67 7.23014C11.76 7.05246 11.8969 6.90275 12.0658 6.79718C12.2347 6.6916 12.4292 6.63417 12.6284 6.63108C12.8276 6.628 13.0238 6.67937 13.1959 6.77966C13.368 6.87995 13.5094 7.02534 13.605 7.20014L14.55 8.95514L12.66 9.96014V11.6701L15.255 10.2901L15.87 11.4601L13.86 12.5251V14.2351L16.59 12.7951L17.175 13.9051L14.835 15.1501V16.8601L17.88 15.2251L19.56 18.3601L19.8 18.7501H20.25C20.6478 18.7501 21.0293 18.9082 21.3106 19.1895C21.5919 19.4708 21.75 19.8523 21.75 20.2501C21.75 20.648 21.5919 21.0295 21.3106 21.3108C21.0293 21.5921 20.6478 21.7501 20.25 21.7501H16.965C14.3911 21.7386 11.9265 20.7085 10.11 18.8851L2.68495 11.3251C2.53541 11.1802 2.41909 11.0046 2.34399 10.8104C2.26889 10.6162 2.2368 10.408 2.24995 10.2001C2.25581 10.0238 2.29738 9.85041 2.37215 9.69056C2.44692 9.53071 2.55333 9.38769 2.68495 9.27014Z" fill="black"/>
</svg>
