<svg width="24" height="24" viewBox="0 0 24 24" fill="none" xmlns="http://www.w3.org/2000/svg">
<path d="M9.04501 19.935C10.0814 20.9824 11.3147 21.8146 12.6739 22.3835C14.0332 22.9524 15.4915 23.2469 16.965 23.25H20.25C21.0114 23.257 21.7469 22.9743 22.3076 22.4591C22.8682 21.944 23.212 21.2349 23.2692 20.4756C23.3265 19.7164 23.0929 18.9638 22.6158 18.3704C22.1387 17.777 21.4538 17.3872 20.7 17.28L14.94 6.49502C14.7699 6.18386 14.5383 5.91048 14.2594 5.69143C13.9806 5.47238 13.6601 5.31221 13.3175 5.22063C12.9749 5.12906 12.6173 5.10797 12.2663 5.15866C11.9153 5.20935 11.5782 5.33075 11.2755 5.51552C10.8645 5.77052 10.533 6.13652 10.32 6.57002L9.91501 7.41002C9.73532 7.27027 9.59516 7.0861 9.50836 6.87567C9.42155 6.66524 9.3911 6.43581 9.42001 6.21002V3.25502C9.44525 2.98295 9.41304 2.70862 9.32545 2.44981C9.23787 2.191 9.09687 1.95348 8.9116 1.75265C8.72634 1.55183 8.50093 1.39218 8.25 1.28405C7.99907 1.17593 7.72822 1.12175 7.45501 1.12502C7.01787 1.12557 6.59129 1.2594 6.23217 1.50864C5.87305 1.75788 5.59845 2.11069 5.44501 2.52002L3.24001 7.00502L1.81501 8.05502C1.49772 8.29855 1.23785 8.60887 1.05381 8.96399C0.869769 9.31912 0.766055 9.71036 0.750012 10.11C0.723124 10.5351 0.789778 10.9609 0.945277 11.3574C1.10078 11.7539 1.34134 12.1115 1.65001 12.405L9.04501 19.935ZM2.68501 9.27002L3.28501 8.82002L10.995 16.425H13.125L4.47001 7.87502L6.81001 3.15002C6.84901 3.00599 6.93224 2.87784 7.04797 2.78365C7.16369 2.68945 7.30607 2.63397 7.45501 2.62502C7.68001 2.62502 7.92001 2.68502 7.92001 3.25502V6.21002C7.92001 7.90502 8.86501 9.01502 10.335 9.01502H10.8L11.67 7.23002C11.7601 7.05234 11.8969 6.90263 12.0658 6.79706C12.2347 6.69148 12.4293 6.63405 12.6285 6.63096C12.8276 6.62787 13.0239 6.67925 13.196 6.77953C13.3681 6.87982 13.5095 7.02522 13.605 7.20002L14.55 8.95502L12.66 9.96002V11.67L15.255 10.29L15.87 11.46L13.86 12.525V14.235L16.59 12.795L17.175 13.905L14.835 15.15V16.86L17.88 15.225L19.56 18.36L19.8 18.75H20.25C20.6478 18.75 21.0294 18.9081 21.3107 19.1894C21.592 19.4707 21.75 19.8522 21.75 20.25C21.75 20.6478 21.592 21.0294 21.3107 21.3107C21.0294 21.592 20.6478 21.75 20.25 21.75H16.965C14.3912 21.7385 11.9266 20.7084 10.11 18.885L2.68501 11.325C2.53548 11.1801 2.41915 11.0045 2.34405 10.8103C2.26895 10.616 2.23687 10.4078 2.25001 10.2C2.25587 10.0236 2.29744 9.85029 2.37221 9.69044C2.44698 9.53059 2.55339 9.38757 2.68501 9.27002Z" fill="black"/>
</svg>
