<svg width="17" height="16" viewBox="0 0 17 16" fill="none" xmlns="http://www.w3.org/2000/svg">
<g clip-path="url(#clip0_15_1554)">
<path d="M6.77997 13.2901C7.4709 13.9884 8.2931 14.5431 9.19926 14.9224C10.1054 15.3017 11.0776 15.498 12.06 15.5001H14.25C14.7575 15.5048 15.2479 15.3163 15.6217 14.9728C15.9954 14.6294 16.2246 14.1567 16.2628 13.6505C16.3009 13.1443 16.1452 12.6426 15.8271 12.247C15.5091 11.8514 15.0525 11.5915 14.55 11.5201L10.71 4.33009C10.5965 4.12266 10.4422 3.9404 10.2563 3.79437C10.0703 3.64833 9.85669 3.54156 9.62829 3.4805C9.39988 3.41945 9.16146 3.4054 8.92747 3.43919C8.69347 3.47298 8.46877 3.55392 8.26697 3.67709C7.99297 3.84709 7.77197 4.09109 7.62997 4.38009L7.35997 4.94009C7.24017 4.84693 7.14673 4.72415 7.08886 4.58386C7.031 4.44357 7.0107 4.29062 7.02997 4.14009V2.17009C7.0468 1.98872 7.02532 1.80583 6.96693 1.63329C6.90854 1.46075 6.81454 1.3024 6.69103 1.16852C6.56752 1.03463 6.41725 0.928199 6.24996 0.856117C6.08268 0.784035 5.90211 0.747913 5.71997 0.750093C5.42854 0.750463 5.14416 0.839679 4.90474 1.00584C4.66532 1.172 4.48226 1.40721 4.37997 1.68009L2.90997 4.67009L1.95997 5.37009C1.74844 5.53245 1.57519 5.73933 1.4525 5.97608C1.32981 6.21283 1.26066 6.47365 1.24997 6.74009C1.23204 7.02348 1.27648 7.30734 1.38014 7.57169C1.48381 7.83604 1.64418 8.07444 1.84997 8.27009L6.77997 13.2901ZM2.53997 6.18009L2.93997 5.88009L8.07997 10.9501H9.49997L3.72997 5.25009L5.28997 2.10009C5.31597 2.00407 5.37145 1.91864 5.4486 1.85585C5.52575 1.79305 5.62067 1.75606 5.71997 1.75009C5.86997 1.75009 6.02997 1.79009 6.02997 2.17009V4.14009C6.02997 5.27009 6.65997 6.01009 7.63997 6.01009H7.94997L8.52997 4.82009C8.59 4.70164 8.68124 4.60184 8.79385 4.53145C8.90646 4.46107 9.03615 4.42278 9.16893 4.42072C9.30171 4.41866 9.43253 4.45291 9.54727 4.51977C9.662 4.58663 9.75629 4.68356 9.81997 4.80009L10.45 5.97009L9.18997 6.64009V7.78009L10.92 6.86009L11.33 7.64009L9.98997 8.35009V9.49009L11.81 8.53009L12.2 9.27009L10.64 10.1001V11.2401L12.67 10.1501L13.79 12.2401L13.95 12.5001H14.25C14.5152 12.5001 14.7695 12.6055 14.9571 12.793C15.1446 12.9805 15.25 13.2349 15.25 13.5001C15.25 13.7653 15.1446 14.0197 14.9571 14.2072C14.7695 14.3947 14.5152 14.5001 14.25 14.5001H12.06C10.3441 14.4924 8.70102 13.8057 7.48997 12.5901L2.53997 7.55009C2.44028 7.45348 2.36272 7.3364 2.31266 7.20692C2.26259 7.07744 2.2412 6.93864 2.24997 6.80009C2.25387 6.68251 2.28159 6.56694 2.33143 6.46038C2.38128 6.35381 2.45222 6.25846 2.53997 6.18009Z" fill="#494950"/>
</g>
<defs>
<clipPath id="clip0_15_1554">
<rect width="16" height="16" fill="white" transform="translate(0.75)"/>
</clipPath>
</defs>
</svg>
