<svg width="16" height="16" viewBox="0 0 16 16" fill="none" xmlns="http://www.w3.org/2000/svg">
<g clip-path="url(#clip0_1_1969)">
<path d="M6.03003 13.29C6.72096 13.9883 7.54316 14.543 8.44932 14.9223C9.35548 15.3016 10.3277 15.4979 11.31 15.5H13.5C14.0076 15.5047 14.498 15.3162 14.8717 14.9727C15.2455 14.6293 15.4747 14.1565 15.5128 13.6504C15.551 13.1442 15.3953 12.6425 15.0772 12.2469C14.7591 11.8513 14.3026 11.5914 13.8 11.52L9.96003 4.32997C9.8466 4.12253 9.69225 3.94028 9.50632 3.79425C9.32039 3.64821 9.10675 3.54143 8.87835 3.48038C8.64994 3.41933 8.41152 3.40528 8.17753 3.43907C7.94353 3.47286 7.71883 3.55379 7.51703 3.67697C7.24303 3.84697 7.02203 4.09097 6.88003 4.37997L6.61003 4.93997C6.49023 4.84681 6.39679 4.72403 6.33893 4.58374C6.28106 4.44345 6.26076 4.2905 6.28003 4.13997V2.16997C6.29686 1.9886 6.27538 1.80571 6.21699 1.63317C6.1586 1.46062 6.0646 1.30228 5.94109 1.16839C5.81758 1.03451 5.66731 0.928077 5.50002 0.855995C5.33274 0.783913 5.15217 0.747791 4.97003 0.749971C4.6786 0.750341 4.39422 0.839557 4.1548 1.00572C3.91539 1.17188 3.73232 1.40709 3.63003 1.67997L2.16003 4.66997L1.21003 5.36997C0.998501 5.53233 0.825256 5.73921 0.702561 5.97596C0.579867 6.2127 0.510724 6.47353 0.500029 6.73997C0.482103 7.02335 0.526539 7.30722 0.630205 7.57157C0.733871 7.83592 0.894246 8.07432 1.10003 8.26997L6.03003 13.29ZM1.79003 6.17997L2.19003 5.87997L7.33003 10.95H8.75003L2.98003 5.24997L4.54003 2.09997C4.56603 2.00395 4.62152 1.91852 4.69866 1.85572C4.77581 1.79293 4.87073 1.75594 4.97003 1.74997C5.12003 1.74997 5.28003 1.78997 5.28003 2.16997V4.13997C5.28003 5.26997 5.91003 6.00997 6.89003 6.00997H7.20003L7.78003 4.81997C7.84006 4.70152 7.9313 4.60171 8.04391 4.53133C8.15652 4.46095 8.28621 4.42266 8.41899 4.4206C8.55177 4.41854 8.68259 4.45279 8.79733 4.51965C8.91206 4.58651 9.00636 4.68344 9.07003 4.79997L9.70003 5.96997L8.44003 6.63997V7.77997L10.17 6.85997L10.58 7.63997L9.24003 8.34997V9.48997L11.06 8.52997L11.45 9.26997L9.89003 10.1V11.24L11.92 10.15L13.04 12.24L13.2 12.5H13.5C13.7652 12.5 14.0196 12.6053 14.2071 12.7929C14.3947 12.9804 14.5 13.2348 14.5 13.5C14.5 13.7652 14.3947 14.0195 14.2071 14.2071C14.0196 14.3946 13.7652 14.5 13.5 14.5H11.31C9.59414 14.4923 7.95108 13.8056 6.74003 12.59L1.79003 7.54997C1.69034 7.45336 1.61278 7.33628 1.56272 7.2068C1.51265 7.07732 1.49126 6.93852 1.50003 6.79997C1.50394 6.68239 1.53165 6.56682 1.58149 6.46025C1.63134 6.35369 1.70228 6.25834 1.79003 6.17997Z" fill="#494950"/>
</g>
<defs>
<clipPath id="clip0_1_1969">
<rect width="16" height="16" fill="white"/>
</clipPath>
</defs>
</svg>
