<svg width="17" height="16" viewBox="0 0 17 16" fill="none" xmlns="http://www.w3.org/2000/svg">
<g clip-path="url(#clip0_15_1465)">
<path d="M6.52997 13.2901C7.2209 13.9884 8.0431 14.5431 8.94926 14.9224C9.85542 15.3017 10.8276 15.498 11.81 15.5001H14C14.5075 15.5048 14.9979 15.3163 15.3717 14.9728C15.7454 14.6294 15.9746 14.1567 16.0128 13.6505C16.0509 13.1443 15.8952 12.6426 15.5771 12.247C15.2591 11.8514 14.8025 11.5915 14.3 11.5201L10.46 4.33009C10.3465 4.12266 10.1922 3.9404 10.0063 3.79437C9.82033 3.64833 9.60669 3.54156 9.37829 3.4805C9.14988 3.41945 8.91146 3.4054 8.67747 3.43919C8.44347 3.47298 8.21877 3.55392 8.01697 3.67709C7.74297 3.84709 7.52197 4.09109 7.37997 4.38009L7.10997 4.94009C6.99017 4.84693 6.89673 4.72415 6.83886 4.58386C6.781 4.44357 6.7607 4.29062 6.77997 4.14009V2.17009C6.7968 1.98872 6.77532 1.80583 6.71693 1.63329C6.65854 1.46075 6.56454 1.3024 6.44103 1.16852C6.31752 1.03463 6.16725 0.928199 5.99996 0.856117C5.83268 0.784035 5.65211 0.747913 5.46997 0.750093C5.17854 0.750463 4.89416 0.839679 4.65474 1.00584C4.41532 1.172 4.23226 1.40721 4.12997 1.68009L2.65997 4.67009L1.70997 5.37009C1.49844 5.53245 1.32519 5.73933 1.2025 5.97608C1.07981 6.21283 1.01066 6.47365 0.999968 6.74009C0.982042 7.02348 1.02648 7.30734 1.13014 7.57169C1.23381 7.83604 1.39418 8.07444 1.59997 8.27009L6.52997 13.2901ZM2.28997 6.18009L2.68997 5.88009L7.82997 10.9501H9.24997L3.47997 5.25009L5.03997 2.10009C5.06597 2.00407 5.12145 1.91864 5.1986 1.85585C5.27575 1.79305 5.37067 1.75606 5.46997 1.75009C5.61997 1.75009 5.77997 1.79009 5.77997 2.17009V4.14009C5.77997 5.27009 6.40997 6.01009 7.38997 6.01009H7.69997L8.27997 4.82009C8.34 4.70164 8.43124 4.60184 8.54385 4.53145C8.65646 4.46107 8.78615 4.42278 8.91893 4.42072C9.05171 4.41866 9.18253 4.45291 9.29727 4.51977C9.412 4.58663 9.50629 4.68356 9.56997 4.80009L10.2 5.97009L8.93997 6.64009V7.78009L10.67 6.86009L11.08 7.64009L9.73997 8.35009V9.49009L11.56 8.53009L11.95 9.27009L10.39 10.1001V11.2401L12.42 10.1501L13.54 12.2401L13.7 12.5001H14C14.2652 12.5001 14.5195 12.6055 14.7071 12.793C14.8946 12.9805 15 13.2349 15 13.5001C15 13.7653 14.8946 14.0197 14.7071 14.2072C14.5195 14.3947 14.2652 14.5001 14 14.5001H11.81C10.0941 14.4924 8.45102 13.8057 7.23997 12.5901L2.28997 7.55009C2.19028 7.45348 2.11272 7.3364 2.06266 7.20692C2.01259 7.07744 1.9912 6.93864 1.99997 6.80009C2.00387 6.68251 2.03159 6.56694 2.08143 6.46038C2.13128 6.35381 2.20222 6.25846 2.28997 6.18009Z" fill="#494950"/>
</g>
<defs>
<clipPath id="clip0_15_1465">
<rect width="16" height="16" fill="white" transform="translate(0.5)"/>
</clipPath>
</defs>
</svg>
