<svg width="17" height="16" viewBox="0 0 17 16" fill="none" xmlns="http://www.w3.org/2000/svg">
<g clip-path="url(#clip0_1_1851)">
<path d="M6.78 13.29C7.47093 13.9883 8.29313 14.543 9.19929 14.9223C10.1054 15.3016 11.0777 15.4979 12.06 15.5H14.25C14.7576 15.5047 15.2479 15.3162 15.6217 14.9727C15.9955 14.6293 16.2247 14.1565 16.2628 13.6504C16.301 13.1442 16.1452 12.6425 15.8272 12.2469C15.5091 11.8513 15.0525 11.5914 14.55 11.52L10.71 4.32997C10.5966 4.12253 10.4422 3.94028 10.2563 3.79425C10.0704 3.64821 9.85672 3.54143 9.62832 3.48038C9.39991 3.41933 9.16149 3.40528 8.9275 3.43907C8.6935 3.47286 8.4688 3.55379 8.267 3.67697C7.993 3.84697 7.772 4.09097 7.63 4.37997L7.36 4.93997C7.2402 4.84681 7.14676 4.72403 7.08889 4.58374C7.03103 4.44345 7.01073 4.2905 7.03 4.13997V2.16997C7.04683 1.9886 7.02535 1.80571 6.96696 1.63317C6.90857 1.46062 6.81457 1.30228 6.69106 1.16839C6.56755 1.03451 6.41728 0.928077 6.24999 0.855995C6.08271 0.783913 5.90214 0.747791 5.72 0.749971C5.42857 0.750341 5.14419 0.839557 4.90477 1.00572C4.66536 1.17188 4.48229 1.40709 4.38 1.67997L2.91 4.66997L1.96 5.36997C1.74847 5.53233 1.57523 5.73921 1.45253 5.97596C1.32984 6.2127 1.26069 6.47353 1.25 6.73997C1.23207 7.02335 1.27651 7.30722 1.38017 7.57157C1.48384 7.83592 1.64422 8.07432 1.85 8.26997L6.78 13.29ZM2.54 6.17997L2.94 5.87997L8.08 10.95H9.5L3.73 5.24997L5.29 2.09997C5.316 2.00395 5.37148 1.91852 5.44863 1.85572C5.52578 1.79293 5.6207 1.75594 5.72 1.74997C5.87 1.74997 6.03 1.78997 6.03 2.16997V4.13997C6.03 5.26997 6.66 6.00997 7.64 6.00997H7.95L8.53 4.81997C8.59003 4.70152 8.68127 4.60171 8.79388 4.53133C8.90649 4.46095 9.03618 4.42266 9.16896 4.4206C9.30174 4.41854 9.43256 4.45279 9.5473 4.51965C9.66203 4.58651 9.75633 4.68344 9.82 4.79997L10.45 5.96997L9.19 6.63997V7.77997L10.92 6.85997L11.33 7.63997L9.99 8.34997V9.48997L11.81 8.52997L12.2 9.26997L10.64 10.1V11.24L12.67 10.15L13.79 12.24L13.95 12.5H14.25C14.5152 12.5 14.7696 12.6053 14.9571 12.7929C15.1446 12.9804 15.25 13.2348 15.25 13.5C15.25 13.7652 15.1446 14.0195 14.9571 14.2071C14.7696 14.3946 14.5152 14.5 14.25 14.5H12.06C10.3441 14.4923 8.70105 13.8056 7.49 12.59L2.54 7.54997C2.44031 7.45336 2.36275 7.33628 2.31269 7.2068C2.26262 7.07732 2.24123 6.93852 2.25 6.79997C2.2539 6.68239 2.28162 6.56682 2.33146 6.46025C2.38131 6.35369 2.45225 6.25834 2.54 6.17997Z" fill="#494950"/>
</g>
<defs>
<clipPath id="clip0_1_1851">
<rect width="16" height="16" fill="white" transform="translate(0.75)"/>
</clipPath>
</defs>
</svg>
