<svg width="17" height="16" viewBox="0 0 17 16" fill="none" xmlns="http://www.w3.org/2000/svg">
<g clip-path="url(#clip0_15_2077)">
<path d="M6.28003 13.2901C6.97096 13.9884 7.79316 14.5431 8.69932 14.9224C9.60548 15.3017 10.5777 15.498 11.56 15.5001H13.75C14.2576 15.5048 14.748 15.3163 15.1217 14.9728C15.4955 14.6294 15.7247 14.1567 15.7628 13.6505C15.801 13.1443 15.6453 12.6426 15.3272 12.247C15.0091 11.8514 14.5526 11.5915 14.05 11.5201L10.21 4.33009C10.0966 4.12266 9.94225 3.9404 9.75632 3.79437C9.57039 3.64833 9.35675 3.54156 9.12835 3.4805C8.89994 3.41945 8.66152 3.4054 8.42753 3.43919C8.19353 3.47298 7.96883 3.55392 7.76703 3.67709C7.49303 3.84709 7.27203 4.09109 7.13003 4.38009L6.86003 4.94009C6.74023 4.84693 6.64679 4.72415 6.58893 4.58386C6.53106 4.44357 6.51076 4.29062 6.53003 4.14009V2.17009C6.54686 1.98872 6.52538 1.80583 6.46699 1.63329C6.4086 1.46075 6.3146 1.3024 6.19109 1.16852C6.06758 1.03463 5.91731 0.928199 5.75002 0.856117C5.58274 0.784035 5.40217 0.747913 5.22003 0.750093C4.9286 0.750463 4.64422 0.839679 4.4048 1.00584C4.16539 1.172 3.98232 1.40721 3.88003 1.68009L2.41003 4.67009L1.46003 5.37009C1.2485 5.53245 1.07526 5.73933 0.952561 5.97608C0.829867 6.21283 0.760724 6.47365 0.750029 6.74009C0.732103 7.02348 0.776539 7.30734 0.880205 7.57169C0.983871 7.83604 1.14425 8.07444 1.35003 8.27009L6.28003 13.2901ZM2.04003 6.18009L2.44003 5.88009L7.58003 10.9501H9.00003L3.23003 5.25009L4.79003 2.10009C4.81603 2.00407 4.87152 1.91864 4.94866 1.85585C5.02581 1.79305 5.12073 1.75606 5.22003 1.75009C5.37003 1.75009 5.53003 1.79009 5.53003 2.17009V4.14009C5.53003 5.27009 6.16003 6.01009 7.14003 6.01009H7.45003L8.03003 4.82009C8.09006 4.70164 8.1813 4.60184 8.29391 4.53145C8.40652 4.46107 8.53621 4.42278 8.66899 4.42072C8.80177 4.41866 8.93259 4.45291 9.04733 4.51977C9.16206 4.58663 9.25636 4.68356 9.32003 4.80009L9.95003 5.97009L8.69003 6.64009V7.78009L10.42 6.86009L10.83 7.64009L9.49003 8.35009V9.49009L11.31 8.53009L11.7 9.27009L10.14 10.1001V11.2401L12.17 10.1501L13.29 12.2401L13.45 12.5001H13.75C14.0152 12.5001 14.2696 12.6055 14.4571 12.793C14.6447 12.9805 14.75 13.2349 14.75 13.5001C14.75 13.7653 14.6447 14.0197 14.4571 14.2072C14.2696 14.3947 14.0152 14.5001 13.75 14.5001H11.56C9.84414 14.4924 8.20108 13.8057 6.99003 12.5901L2.04003 7.55009C1.94034 7.45348 1.86278 7.3364 1.81272 7.20692C1.76265 7.07744 1.74126 6.93864 1.75003 6.80009C1.75394 6.68251 1.78165 6.56694 1.83149 6.46038C1.88134 6.35381 1.95228 6.25846 2.04003 6.18009Z" fill="#494950"/>
</g>
<defs>
<clipPath id="clip0_15_2077">
<rect width="16" height="16" fill="white" transform="translate(0.25)"/>
</clipPath>
</defs>
</svg>
