<svg width="17" height="16" viewBox="0 0 17 16" fill="none" xmlns="http://www.w3.org/2000/svg">
<g clip-path="url(#clip0_1_1814)">
<path d="M6.53 13.29C7.22093 13.9883 8.04313 14.543 8.94929 14.9223C9.85545 15.3016 10.8277 15.4979 11.81 15.5H14C14.5076 15.5047 14.9979 15.3162 15.3717 14.9727C15.7455 14.6293 15.9747 14.1565 16.0128 13.6504C16.051 13.1442 15.8952 12.6425 15.5772 12.2469C15.2591 11.8513 14.8025 11.5914 14.3 11.52L10.46 4.32997C10.3466 4.12253 10.1922 3.94028 10.0063 3.79425C9.82036 3.64821 9.60672 3.54143 9.37832 3.48038C9.14991 3.41933 8.91149 3.40528 8.6775 3.43907C8.4435 3.47286 8.2188 3.55379 8.017 3.67697C7.743 3.84697 7.522 4.09097 7.38 4.37997L7.11 4.93997C6.99021 4.84681 6.89677 4.72403 6.8389 4.58374C6.78103 4.44345 6.76073 4.2905 6.78 4.13997V2.16997C6.79683 1.9886 6.77535 1.80571 6.71696 1.63317C6.65857 1.46062 6.56457 1.30228 6.44106 1.16839C6.31755 1.03451 6.16728 0.928077 5.99999 0.855995C5.83271 0.783913 5.65214 0.747791 5.47 0.749971C5.17857 0.750341 4.89419 0.839557 4.65477 1.00572C4.41536 1.17188 4.23229 1.40709 4.13 1.67997L2.66 4.66997L1.71 5.36997C1.49847 5.53233 1.32523 5.73921 1.20253 5.97596C1.07984 6.2127 1.01069 6.47353 1 6.73997C0.982074 7.02335 1.02651 7.30722 1.13018 7.57157C1.23384 7.83592 1.39422 8.07432 1.6 8.26997L6.53 13.29ZM2.29 6.17997L2.69 5.87997L7.83 10.95H9.25L3.48 5.24997L5.04 2.09997C5.066 2.00395 5.12149 1.91852 5.19864 1.85572C5.27579 1.79293 5.3707 1.75594 5.47 1.74997C5.62 1.74997 5.78 1.78997 5.78 2.16997V4.13997C5.78 5.26997 6.41 6.00997 7.39 6.00997H7.7L8.28 4.81997C8.34003 4.70152 8.43127 4.60171 8.54388 4.53133C8.65649 4.46095 8.78618 4.42266 8.91896 4.4206C9.05174 4.41854 9.18256 4.45279 9.2973 4.51965C9.41203 4.58651 9.50633 4.68344 9.57 4.79997L10.2 5.96997L8.94 6.63997V7.77997L10.67 6.85997L11.08 7.63997L9.74 8.34997V9.48997L11.56 8.52997L11.95 9.26997L10.39 10.1V11.24L12.42 10.15L13.54 12.24L13.7 12.5H14C14.2652 12.5 14.5196 12.6053 14.7071 12.7929C14.8946 12.9804 15 13.2348 15 13.5C15 13.7652 14.8946 14.0195 14.7071 14.2071C14.5196 14.3946 14.2652 14.5 14 14.5H11.81C10.0941 14.4923 8.45105 13.8056 7.24 12.59L2.29 7.54997C2.19031 7.45336 2.11276 7.33628 2.06269 7.2068C2.01262 7.07732 1.99124 6.93852 2 6.79997C2.00391 6.68239 2.03162 6.56682 2.08147 6.46025C2.13131 6.35369 2.20225 6.25834 2.29 6.17997Z" fill="#494950"/>
</g>
<defs>
<clipPath id="clip0_1_1814">
<rect width="16" height="16" fill="white" transform="translate(0.5)"/>
</clipPath>
</defs>
</svg>
