<svg width="16" height="16" viewBox="0 0 16 16" fill="none" xmlns="http://www.w3.org/2000/svg">
<g clip-path="url(#clip0_15_653)">
<path d="M6.02997 13.29C6.7209 13.9883 7.5431 14.543 8.44926 14.9223C9.35542 15.3016 10.3276 15.4979 11.31 15.5H13.5C14.0075 15.5047 14.4979 15.3162 14.8717 14.9727C15.2454 14.6293 15.4746 14.1565 15.5128 13.6504C15.5509 13.1442 15.3952 12.6425 15.0771 12.2469C14.7591 11.8513 14.3025 11.5914 13.8 11.52L9.95997 4.32997C9.84654 4.12253 9.69219 3.94028 9.50626 3.79425C9.32033 3.64821 9.10669 3.54143 8.87829 3.48038C8.64988 3.41933 8.41146 3.40528 8.17747 3.43907C7.94347 3.47286 7.71877 3.55379 7.51697 3.67697C7.24297 3.84697 7.02197 4.09097 6.87997 4.37997L6.60997 4.93997C6.49017 4.84681 6.39673 4.72403 6.33886 4.58374C6.281 4.44345 6.2607 4.2905 6.27997 4.13997V2.16997C6.2968 1.9886 6.27532 1.80571 6.21693 1.63317C6.15854 1.46062 6.06454 1.30228 5.94103 1.16839C5.81752 1.03451 5.66725 0.928077 5.49996 0.855995C5.33268 0.783913 5.15211 0.747791 4.96997 0.749971C4.67854 0.750341 4.39416 0.839557 4.15474 1.00572C3.91532 1.17188 3.73226 1.40709 3.62997 1.67997L2.15997 4.66997L1.20997 5.36997C0.99844 5.53233 0.825195 5.73921 0.7025 5.97596C0.579806 6.2127 0.510663 6.47353 0.499968 6.73997C0.482042 7.02335 0.526478 7.30722 0.630144 7.57157C0.73381 7.83592 0.894185 8.07432 1.09997 8.26997L6.02997 13.29ZM1.78997 6.17997L2.18997 5.87997L7.32997 10.95H8.74997L2.97997 5.24997L4.53997 2.09997C4.56597 2.00395 4.62145 1.91852 4.6986 1.85572C4.77575 1.79293 4.87067 1.75594 4.96997 1.74997C5.11997 1.74997 5.27997 1.78997 5.27997 2.16997V4.13997C5.27997 5.26997 5.90997 6.00997 6.88997 6.00997H7.19997L7.77997 4.81997C7.84 4.70152 7.93124 4.60171 8.04385 4.53133C8.15646 4.46095 8.28615 4.42266 8.41893 4.4206C8.55171 4.41854 8.68253 4.45279 8.79727 4.51965C8.912 4.58651 9.00629 4.68344 9.06997 4.79997L9.69997 5.96997L8.43997 6.63997V7.77997L10.17 6.85997L10.58 7.63997L9.23997 8.34997V9.48997L11.06 8.52997L11.45 9.26997L9.88997 10.1V11.24L11.92 10.15L13.04 12.24L13.2 12.5H13.5C13.7652 12.5 14.0195 12.6053 14.2071 12.7929C14.3946 12.9804 14.5 13.2348 14.5 13.5C14.5 13.7652 14.3946 14.0195 14.2071 14.2071C14.0195 14.3946 13.7652 14.5 13.5 14.5H11.31C9.59408 14.4923 7.95102 13.8056 6.73997 12.59L1.78997 7.54997C1.69028 7.45336 1.61272 7.33628 1.56266 7.2068C1.51259 7.07732 1.4912 6.93852 1.49997 6.79997C1.50387 6.68239 1.53159 6.56682 1.58143 6.46025C1.63128 6.35369 1.70222 6.25834 1.78997 6.17997Z" fill="black"/>
</g>
<defs>
<clipPath id="clip0_15_653">
<rect width="16" height="16" fill="white"/>
</clipPath>
</defs>
</svg>
