<svg width="17" height="16" viewBox="0 0 17 16" fill="none" xmlns="http://www.w3.org/2000/svg">
<g clip-path="url(#clip0_1_2211)">
<path d="M6.28 13.29C6.97093 13.9883 7.79313 14.543 8.69929 14.9223C9.60545 15.3016 10.5777 15.4979 11.56 15.5H13.75C14.2576 15.5047 14.7479 15.3162 15.1217 14.9727C15.4955 14.6293 15.7247 14.1565 15.7628 13.6504C15.801 13.1442 15.6452 12.6425 15.3272 12.2469C15.0091 11.8513 14.5525 11.5914 14.05 11.52L10.21 4.32997C10.0966 4.12253 9.94222 3.94028 9.75629 3.79425C9.57036 3.64821 9.35672 3.54143 9.12832 3.48038C8.89991 3.41933 8.66149 3.40528 8.4275 3.43907C8.1935 3.47286 7.9688 3.55379 7.767 3.67697C7.493 3.84697 7.272 4.09097 7.13 4.37997L6.86 4.93997C6.7402 4.84681 6.64676 4.72403 6.58889 4.58374C6.53103 4.44345 6.51073 4.2905 6.53 4.13997V2.16997C6.54683 1.9886 6.52535 1.80571 6.46696 1.63317C6.40857 1.46062 6.31457 1.30228 6.19106 1.16839C6.06755 1.03451 5.91728 0.928077 5.74999 0.855995C5.58271 0.783913 5.40214 0.747791 5.22 0.749971C4.92857 0.750341 4.64419 0.839557 4.40477 1.00572C4.16536 1.17188 3.98229 1.40709 3.88 1.67997L2.41 4.66997L1.46 5.36997C1.24847 5.53233 1.07523 5.73921 0.952531 5.97596C0.829836 6.2127 0.760693 6.47353 0.749998 6.73997C0.732073 7.02335 0.776508 7.30722 0.880175 7.57157C0.983841 7.83592 1.14422 8.07432 1.35 8.26997L6.28 13.29ZM2.04 6.17997L2.44 5.87997L7.58 10.95H9L3.23 5.24997L4.79 2.09997C4.816 2.00395 4.87148 1.91852 4.94863 1.85572C5.02578 1.79293 5.1207 1.75594 5.22 1.74997C5.37 1.74997 5.53 1.78997 5.53 2.16997V4.13997C5.53 5.26997 6.16 6.00997 7.14 6.00997H7.45L8.03 4.81997C8.09003 4.70152 8.18127 4.60171 8.29388 4.53133C8.40649 4.46095 8.53618 4.42266 8.66896 4.4206C8.80174 4.41854 8.93256 4.45279 9.0473 4.51965C9.16203 4.58651 9.25633 4.68344 9.32 4.79997L9.95 5.96997L8.69 6.63997V7.77997L10.42 6.85997L10.83 7.63997L9.49 8.34997V9.48997L11.31 8.52997L11.7 9.26997L10.14 10.1V11.24L12.17 10.15L13.29 12.24L13.45 12.5H13.75C14.0152 12.5 14.2696 12.6053 14.4571 12.7929C14.6446 12.9804 14.75 13.2348 14.75 13.5C14.75 13.7652 14.6446 14.0195 14.4571 14.2071C14.2696 14.3946 14.0152 14.5 13.75 14.5H11.56C9.84411 14.4923 8.20105 13.8056 6.99 12.59L2.04 7.54997C1.94031 7.45336 1.86275 7.33628 1.81269 7.2068C1.76262 7.07732 1.74123 6.93852 1.75 6.79997C1.7539 6.68239 1.78162 6.56682 1.83146 6.46025C1.88131 6.35369 1.95225 6.25834 2.04 6.17997Z" fill="#494950"/>
</g>
<defs>
<clipPath id="clip0_1_2211">
<rect width="16" height="16" fill="white" transform="translate(0.25)"/>
</clipPath>
</defs>
</svg>
