<svg width="24" height="24" viewBox="0 0 24 24" fill="none" xmlns="http://www.w3.org/2000/svg">
<path fill-rule="evenodd" clip-rule="evenodd" d="M12 0.5C7.30558 0.5 3.5 4.30558 3.5 9C3.5 11.7993 4.85317 14.2825 6.94108 15.8313L3.3476 22.0554L5.94567 23.5554L9.63432 17.1665C10.3853 17.3836 11.1791 17.5 12 17.5C16.6944 17.5 20.5 13.6944 20.5 9C20.5 4.30558 16.6944 0.5 12 0.5ZM4.5 9C4.5 4.85786 7.85786 1.5 12 1.5C16.1421 1.5 19.5 4.85786 19.5 9C19.5 13.1421 16.1421 16.5 12 16.5C7.85786 16.5 4.5 13.1421 4.5 9ZM4.71362 21.6894L7.62975 16.6385L8.49578 17.1385L5.57965 22.1894L4.71362 21.6894Z" fill="#949599"/>
</svg>
