<svg width="24" height="24" viewBox="0 0 24 24" fill="none" xmlns="http://www.w3.org/2000/svg">
<path fill-rule="evenodd" clip-rule="evenodd" d="M12.0001 0.5C7.30564 0.5 3.50006 4.30558 3.50006 9C3.50006 11.7993 4.85323 14.2825 6.94114 15.8313L3.34766 22.0554L5.94573 23.5554L9.63438 17.1665C10.3854 17.3836 11.1791 17.5 12.0001 17.5C16.6945 17.5 20.5001 13.6944 20.5001 9C20.5001 4.30558 16.6945 0.5 12.0001 0.5ZM4.50006 9C4.50006 4.85786 7.85793 1.5 12.0001 1.5C16.1422 1.5 19.5001 4.85786 19.5001 9C19.5001 13.1421 16.1422 16.5 12.0001 16.5C7.85793 16.5 4.50006 13.1421 4.50006 9ZM4.71368 21.6894L7.62981 16.6385L8.49584 17.1385L5.57971 22.1894L4.71368 21.6894Z" fill="#949599"/>
</svg>
