<svg width="25" height="24" viewBox="0 0 25 24" fill="none" xmlns="http://www.w3.org/2000/svg">
<path fill-rule="evenodd" clip-rule="evenodd" d="M11.9389 1.92253C12.1347 1.40603 12.8653 1.40603 13.0611 1.92253L15.6225 8.68155H22.3471C22.9176 8.68155 23.1661 9.40271 22.7167 9.75416L17.2459 14.0331L20.2003 21.6301C20.4191 22.1926 19.7639 22.6897 19.2811 22.3276L12.507 17.247L6.14866 22.3176C5.68097 22.6906 5.01527 22.2244 5.20582 21.6574L7.76527 14.0413L2.28332 9.75418C1.83393 9.40274 2.08245 8.68155 2.65294 8.68155H9.37744L11.9389 1.92253ZM12.5 2.55843L10.0421 9.04418C9.95371 9.27734 9.73035 9.43155 9.48101 9.43155H3.08823L8.31087 13.5159C8.51123 13.6726 8.59102 13.9386 8.51 14.1797L6.07883 21.414L12.1301 16.5883C12.3438 16.4179 12.6456 16.4134 12.8642 16.5774L19.311 21.4124L16.5065 14.201C16.4106 13.9544 16.4876 13.674 16.6961 13.511L21.9118 9.43155H15.519C15.2696 9.43155 15.0463 9.27734 14.9579 9.04418L12.5 2.55843Z" fill="white"/>
<path d="M10.0421 9.04418L12.5 2.55843L14.9579 9.04418C15.0463 9.27734 15.2696 9.43155 15.519 9.43155H21.9118L16.6961 13.511C16.4876 13.674 16.4106 13.9544 16.5065 14.201L19.311 21.4124L12.8642 16.5774C12.6456 16.4134 12.3438 16.4179 12.1301 16.5883L6.07883 21.414L8.51 14.1797C8.59102 13.9386 8.51123 13.6726 8.31087 13.5159L3.08823 9.43155H9.48101C9.73035 9.43155 9.95371 9.27734 10.0421 9.04418Z" fill="white"/>
</svg>
