<svg width="95" height="20" viewBox="0 0 95 20" fill="none" xmlns="http://www.w3.org/2000/svg">
<path d="M9.10412 19.2119C7.38774 19.2243 5.6798 18.9703 4.04105 18.459C2.55275 17.9993 1.17647 17.234 0 16.2119L3.17175 12.4355C4.07912 13.1516 5.11054 13.6939 6.2143 14.0355C7.24213 14.3515 8.31087 14.514 9.38605 14.5178C9.78799 14.5469 10.191 14.4783 10.5608 14.3178C10.665 14.2675 10.7532 14.1892 10.8155 14.0915C10.8777 13.9938 10.9116 13.8807 10.9132 13.7649C10.899 13.6198 10.8423 13.4822 10.7504 13.3692C10.6585 13.2562 10.5353 13.1728 10.3963 13.1296C9.77188 12.8815 9.12176 12.7039 8.45802 12.6002C7.46342 12.3963 6.51189 12.157 5.60343 11.8825C4.77838 11.642 3.98847 11.2939 3.25398 10.8472C2.59406 10.4468 2.03528 9.89925 1.62112 9.24724C1.19789 8.5372 0.985959 7.72087 1.01026 6.8943C1.00343 6.08353 1.17174 5.28088 1.50365 4.54136C1.83621 3.80542 2.33007 3.15399 2.94855 2.63547C3.64122 2.06218 4.43944 1.63051 5.298 1.36489C6.34422 1.04357 7.43432 0.888746 8.5285 0.906063C10.0583 0.879621 11.5832 1.08589 13.0512 1.51783C14.3284 1.9022 15.5233 2.52051 16.5754 3.34136L13.662 7.23547C12.8354 6.64353 11.9136 6.19787 10.9367 5.91783C10.0768 5.64884 9.18256 5.50617 8.28181 5.4943C7.9446 5.46961 7.60714 5.53883 7.30678 5.6943C7.21097 5.74547 7.13085 5.82176 7.07499 5.91501C7.01912 6.00826 6.98961 6.11496 6.98961 6.22371C7.00395 6.36084 7.0568 6.4911 7.14204 6.59938C7.22729 6.70766 7.34144 6.78952 7.47125 6.83547C8.07455 7.08607 8.70552 7.26379 9.35081 7.36488C10.3983 7.54499 11.434 7.78857 12.4521 8.0943C13.2837 8.34939 14.0748 8.72175 14.8015 9.20018C15.4358 9.61026 15.9665 10.1619 16.3522 10.8119C16.7314 11.5112 16.9179 12.299 16.8925 13.0943C16.9059 13.9663 16.7127 14.8291 16.3287 15.6119C15.9934 16.3823 15.4824 17.0633 14.8368 17.6002C14.0973 18.1398 13.2651 18.5386 12.3816 18.7766C11.3155 19.0778 10.2118 19.2244 9.10412 19.2119Z" fill="#FC5200"/>
<path d="M21.8852 6.1412H16.6577V1.11768H33.0451V6.1412H27.7589V18.8588H21.8852V6.1412Z" fill="#FC5200"/>
<path d="M33.8204 1.11762H42.4898C43.8148 1.0779 45.1371 1.26083 46.4017 1.6588C47.3367 1.95764 48.1921 2.4644 48.9038 3.14115C49.4141 3.66353 49.8137 4.28379 50.0786 4.96468C50.3608 5.7165 50.5002 6.51451 50.4897 7.31762C50.527 8.48692 50.1984 9.63865 49.5499 10.6117C48.8967 11.5333 48.0137 12.2675 46.989 12.7411L51.1358 18.8588H44.3694L41.0214 13.7764H39.7527V18.8588H33.8204V1.11762ZM42.3136 9.57644C42.9047 9.60898 43.4902 9.44792 43.9817 9.11762C44.1794 8.97185 44.3384 8.77984 44.4449 8.55836C44.5513 8.33688 44.6021 8.09267 44.5926 7.84703C44.6095 7.59872 44.5621 7.35024 44.4551 7.12561C44.3481 6.90097 44.1851 6.70777 43.9817 6.56468C43.4888 6.26038 42.9155 6.11272 42.3371 6.14115H39.7527V9.67056H42.3136V9.57644Z" fill="#FC5200"/>
<path d="M85.4495 11.2353L89.3143 18.8823H95L85.4495 0L75.899 18.8823H81.5847L85.4495 11.2353Z" fill="#FC5200"/>
<path d="M58.8654 11.2353L62.7303 18.8823H68.416L58.8654 0L49.3149 18.8823H55.0006L58.8654 11.2353Z" fill="#FC5200"/>
<path d="M72.1634 8.75296L68.2868 1.11768H62.6011L72.1634 20L81.7139 1.11768H76.0282L72.1634 8.75296Z" fill="#FC5200"/>
</svg>
