<svg width="117" height="24" viewBox="0 0 117 24" fill="none" xmlns="http://www.w3.org/2000/svg">
<path d="M11.2124 23.0542C9.09858 23.069 6.99512 22.7642 4.97687 22.1507C3.14392 21.5991 1.44892 20.6807 0 19.4542L3.90627 14.9225C5.02376 15.7818 6.29404 16.4326 7.6534 16.8425C8.91925 17.2217 10.2355 17.4168 11.5597 17.4213C12.0547 17.4561 12.551 17.3738 13.0064 17.1813C13.1348 17.121 13.2434 17.0269 13.3201 16.9097C13.3968 16.7925 13.4384 16.6568 13.4405 16.5178C13.4229 16.3437 13.3532 16.1785 13.24 16.0429C13.1267 15.9073 12.9751 15.8073 12.8039 15.7554C12.0348 15.4577 11.2342 15.2446 10.4167 15.1201C9.19179 14.8754 8.0199 14.5883 6.90107 14.2589C5.88496 13.9703 4.91212 13.5526 4.00754 13.0166C3.19479 12.536 2.50661 11.879 1.99653 11.0966C1.47529 10.2445 1.21429 9.26494 1.24422 8.27306C1.23581 7.30014 1.44309 6.33695 1.85186 5.44953C2.26143 4.56641 2.86966 3.7847 3.63138 3.16247C4.48445 2.47452 5.46752 1.95651 6.52491 1.63777C7.81341 1.25219 9.15596 1.0664 10.5035 1.08718C12.3876 1.05545 14.2657 1.30297 16.0736 1.8213C17.6466 2.28255 19.1182 3.02451 20.4139 4.00953L16.8259 8.68247C15.8079 7.97214 14.6726 7.43734 13.4694 7.10129C12.4104 6.7785 11.309 6.60731 10.1997 6.59306C9.7844 6.56343 9.3688 6.6465 8.99888 6.83306C8.88088 6.89447 8.78221 6.98602 8.7134 7.09791C8.6446 7.20981 8.60826 7.33786 8.60826 7.46835C8.62591 7.63291 8.691 7.78922 8.79599 7.91916C8.90098 8.04909 9.04156 8.14732 9.20144 8.20247C9.94445 8.50319 10.7215 8.71645 11.5163 8.83776C12.8064 9.05389 14.0819 9.34619 15.3357 9.71306C16.3599 10.0192 17.3342 10.466 18.2293 11.0401C19.0104 11.5322 19.6641 12.1942 20.139 12.9742C20.606 13.8133 20.8357 14.7587 20.8045 15.7131C20.821 16.7595 20.583 17.7949 20.11 18.7342C19.6971 19.6587 19.0678 20.4759 18.2727 21.1201C17.362 21.7677 16.337 22.2462 15.2489 22.5319C13.9359 22.8932 12.5766 23.0692 11.2124 23.0542Z" fill="#B0B0B0"/>
<path d="M26.9534 7.36954H20.5153V1.34131H40.6976V7.36954H34.1872V22.6307H26.9534V7.36954Z" fill="#B0B0B0"/>
<path d="M41.6525 1.3411H52.3296C53.9614 1.29344 55.5899 1.51295 57.1473 1.99051C58.2988 2.34912 59.3523 2.95724 60.2289 3.76934C60.8573 4.39619 61.3495 5.1405 61.6757 5.95757C62.0233 6.85975 62.195 7.81736 62.1821 8.7811C62.228 10.1843 61.8233 11.5663 61.0247 12.734C60.2201 13.84 59.1327 14.721 57.8707 15.2893L62.9778 22.6305H54.6444L50.5211 16.5317H48.9586V22.6305H41.6525V1.3411ZM52.1126 11.4917C52.8405 11.5307 53.5616 11.3375 54.167 10.9411C54.4104 10.7662 54.6062 10.5358 54.7374 10.27C54.8685 10.0042 54.931 9.71115 54.9193 9.41639C54.9401 9.11841 54.8818 8.82024 54.75 8.55068C54.6182 8.28112 54.4174 8.04928 54.167 7.87757C53.5599 7.51241 52.8538 7.33522 52.1415 7.36933H48.9586V11.6046H52.1126V11.4917Z" fill="#B0B0B0"/>
<path d="M105.238 13.4823L109.998 22.6588H117L105.238 0L93.4756 22.6588H100.478L105.238 13.4823Z" fill="#B0B0B0"/>
<path d="M72.4974 13.4823L77.2573 22.6588H84.2596L72.4974 0L60.7352 22.6588H67.7376L72.4974 13.4823Z" fill="#B0B0B0"/>
<path d="M88.8749 10.5037L84.1006 1.34131H77.0983L88.8749 24.0001L100.637 1.34131H93.6348L88.8749 10.5037Z" fill="#B0B0B0"/>
</svg>
