<svg width="16" height="16" viewBox="0 0 16 16" fill="none" xmlns="http://www.w3.org/2000/svg">
<g clip-path="url(#clip0_1_1791)">
<path d="M8 0.5C6.51664 0.5 5.0666 0.939867 3.83323 1.76398C2.59986 2.58809 1.63856 3.75943 1.07091 5.12987C0.50325 6.50032 0.354725 8.00832 0.644114 9.46318C0.933503 10.918 1.64781 12.2544 2.6967 13.3033C3.7456 14.3522 5.08197 15.0665 6.53683 15.3559C7.99168 15.6453 9.49968 15.4968 10.8701 14.9291C12.2406 14.3614 13.4119 13.4001 14.236 12.1668C15.0601 10.9334 15.5 9.48336 15.5 8C15.4979 6.01153 14.707 4.1051 13.301 2.69904C11.8949 1.29297 9.98848 0.502118 8 0.5ZM8 14.5C6.71442 14.5 5.45772 14.1188 4.3888 13.4046C3.31988 12.6903 2.48676 11.6752 1.99479 10.4874C1.50282 9.29972 1.3741 7.99279 1.6249 6.73191C1.8757 5.47104 2.49477 4.31285 3.40381 3.40381C4.31285 2.49476 5.47104 1.8757 6.73192 1.6249C7.99279 1.37409 9.29973 1.50281 10.4874 1.99478C11.6752 2.48675 12.6903 3.31987 13.4046 4.38879C14.1188 5.45771 14.5 6.71442 14.5 8C14.4979 9.72326 13.8124 11.3753 12.5939 12.5939C11.3753 13.8124 9.72326 14.4979 8 14.5Z" fill="#494950"/>
<path d="M8.5 3H7.5V8.5H11V7.5H8.5V3Z" fill="#494950"/>
</g>
<defs>
<clipPath id="clip0_1_1791">
<rect width="16" height="16" fill="white"/>
</clipPath>
</defs>
</svg>
