<svg width="33" height="32" viewBox="0 0 33 32" fill="none" xmlns="http://www.w3.org/2000/svg">
<path d="M16.5 1C13.5333 1 10.6332 1.87973 8.16645 3.52796C5.69972 5.17618 3.77713 7.51886 2.64181 10.2597C1.5065 13.0006 1.20945 16.0166 1.78823 18.9264C2.36701 21.8361 3.79562 24.5088 5.8934 26.6066C7.99119 28.7044 10.6639 30.133 13.5737 30.7118C16.4834 31.2906 19.4994 30.9935 22.2403 29.8582C24.9812 28.7229 27.3238 26.8003 28.9721 24.3336C30.6203 21.8668 31.5 18.9667 31.5 16C31.4958 12.0231 29.9141 8.2102 27.1019 5.39808C24.2898 2.58595 20.477 1.00424 16.5 1ZM16.5 29C13.9288 29 11.4154 28.2376 9.27759 26.8091C7.13975 25.3806 5.47351 23.3503 4.48957 20.9749C3.50563 18.5994 3.24819 15.9856 3.7498 13.4638C4.25141 10.9421 5.48954 8.62569 7.30762 6.80761C9.1257 4.98953 11.4421 3.7514 13.9638 3.24979C16.4856 2.74818 19.0995 3.00563 21.4749 3.98957C23.8503 4.97351 25.8807 6.63975 27.3091 8.77759C28.7376 10.9154 29.5 13.4288 29.5 16C29.4958 19.4465 28.1248 22.7507 25.6877 25.1877C23.2507 27.6248 19.9465 28.9958 16.5 29Z" fill="black"/>
<path d="M17.5 6H15.5V17H22.5V15H17.5V6Z" fill="black"/>
</svg>
