<svg width="17" height="16" viewBox="0 0 17 16" fill="none" xmlns="http://www.w3.org/2000/svg">
<g clip-path="url(#clip0_1_1673)">
<path d="M8.25 0.5C6.76664 0.5 5.3166 0.939867 4.08323 1.76398C2.84986 2.58809 1.88856 3.75943 1.32091 5.12987C0.75325 6.50032 0.604725 8.00832 0.894114 9.46318C1.1835 10.918 1.89781 12.2544 2.9467 13.3033C3.9956 14.3522 5.33197 15.0665 6.78683 15.3559C8.24168 15.6453 9.74968 15.4968 11.1201 14.9291C12.4906 14.3614 13.6619 13.4001 14.486 12.1668C15.3101 10.9334 15.75 9.48336 15.75 8C15.7479 6.01153 14.957 4.1051 13.551 2.69904C12.1449 1.29297 10.2385 0.502118 8.25 0.5ZM8.25 14.5C6.96442 14.5 5.70772 14.1188 4.6388 13.4046C3.56988 12.6903 2.73676 11.6752 2.24479 10.4874C1.75282 9.29972 1.6241 7.99279 1.8749 6.73191C2.1257 5.47104 2.74477 4.31285 3.65381 3.40381C4.56285 2.49476 5.72104 1.8757 6.98192 1.6249C8.24279 1.37409 9.54973 1.50281 10.7374 1.99478C11.9252 2.48675 12.9403 3.31987 13.6546 4.38879C14.3688 5.45771 14.75 6.71442 14.75 8C14.7479 9.72326 14.0624 11.3753 12.8439 12.5939C11.6253 13.8124 9.97326 14.4979 8.25 14.5Z" fill="#494950"/>
<path d="M8.75 3H7.75V8.5H11.25V7.5H8.75V3Z" fill="#494950"/>
</g>
<defs>
<clipPath id="clip0_1_1673">
<rect width="16" height="16" fill="white" transform="translate(0.25)"/>
</clipPath>
</defs>
</svg>
