<svg width="17" height="16" viewBox="0 0 17 16" fill="none" xmlns="http://www.w3.org/2000/svg">
<path d="M8.5 0.5C7.01664 0.5 5.5666 0.939867 4.33323 1.76398C3.09986 2.58809 2.13856 3.75943 1.57091 5.12987C1.00325 6.50032 0.854725 8.00832 1.14411 9.46318C1.4335 10.918 2.14781 12.2544 3.1967 13.3033C4.2456 14.3522 5.58197 15.0665 7.03683 15.3559C8.49168 15.6453 9.99968 15.4968 11.3701 14.9291C12.7406 14.3614 13.9119 13.4001 14.736 12.1668C15.5601 10.9334 16 9.48336 16 8C15.9979 6.01153 15.207 4.1051 13.801 2.69904C12.3949 1.29297 10.4885 0.502118 8.5 0.5ZM8.5 14.5C7.21442 14.5 5.95772 14.1188 4.8888 13.4046C3.81988 12.6903 2.98676 11.6752 2.49479 10.4874C2.00282 9.29972 1.8741 7.99279 2.1249 6.73191C2.3757 5.47104 2.99477 4.31285 3.90381 3.40381C4.81285 2.49476 5.97104 1.8757 7.23192 1.6249C8.49279 1.37409 9.79973 1.50281 10.9874 1.99478C12.1752 2.48675 13.1903 3.31987 13.9046 4.38879C14.6188 5.45771 15 6.71442 15 8C14.9979 9.72326 14.3124 11.3753 13.0939 12.5939C11.8753 13.8124 10.2233 14.4979 8.5 14.5Z" fill="#494950"/>
<path d="M9 3H8V8.5H11.5V7.5H9V3Z" fill="#494950"/>
</svg>
