<svg width="17" height="16" viewBox="0 0 17 16" fill="none" xmlns="http://www.w3.org/2000/svg">
<g clip-path="url(#clip0_1_1637)">
<path d="M8.75 0.5C7.26664 0.5 5.8166 0.939867 4.58323 1.76398C3.34986 2.58809 2.38856 3.75943 1.82091 5.12987C1.25325 6.50032 1.10472 8.00832 1.39411 9.46318C1.6835 10.918 2.39781 12.2544 3.4467 13.3033C4.4956 14.3522 5.83197 15.0665 7.28683 15.3559C8.74168 15.6453 10.2497 15.4968 11.6201 14.9291C12.9906 14.3614 14.1619 13.4001 14.986 12.1668C15.8101 10.9334 16.25 9.48336 16.25 8C16.2479 6.01153 15.457 4.1051 14.051 2.69904C12.6449 1.29297 10.7385 0.502118 8.75 0.5ZM8.75 14.5C7.46442 14.5 6.20772 14.1188 5.1388 13.4046C4.06988 12.6903 3.23676 11.6752 2.74479 10.4874C2.25282 9.29972 2.1241 7.99279 2.3749 6.73191C2.6257 5.47104 3.24477 4.31285 4.15381 3.40381C5.06285 2.49476 6.22104 1.8757 7.48192 1.6249C8.74279 1.37409 10.0497 1.50281 11.2374 1.99478C12.4252 2.48675 13.4403 3.31987 14.1546 4.38879C14.8688 5.45771 15.25 6.71442 15.25 8C15.2479 9.72326 14.5624 11.3753 13.3439 12.5939C12.1253 13.8124 10.4733 14.4979 8.75 14.5Z" fill="#494950"/>
<path d="M9.25 3H8.25V8.5H11.75V7.5H9.25V3Z" fill="#494950"/>
</g>
<defs>
<clipPath id="clip0_1_1637">
<rect width="16" height="16" fill="white" transform="translate(0.75)"/>
</clipPath>
</defs>
</svg>
