<svg width="16" height="16" viewBox="0 0 16 16" fill="none" xmlns="http://www.w3.org/2000/svg">
<path fill-rule="evenodd" clip-rule="evenodd" d="M5.33142 0.753507C5.65499 0.381821 6.25764 0.420908 6.51863 0.857228C6.99463 1.65299 8.38992 3.97027 9.42911 5.54295C9.6502 5.2874 9.84637 5.05565 10.0218 4.84837L10.0239 4.84585C10.2382 4.59273 10.4235 4.37381 10.5838 4.19522C10.9267 3.81311 11.2344 3.52095 11.6305 3.33838C12.0257 3.15628 12.4574 3.10682 12.9969 3.09246C13.3102 3.08413 13.6874 3.08777 14.1404 3.09214L14.1448 3.09218C14.4688 3.09531 14.8335 3.09883 15.2464 3.09883L15.8416 3.09883V4.09883L15.2464 4.09883C14.8155 4.09883 14.444 4.0952 14.1202 4.09202C13.6726 4.08764 13.3198 4.08422 13.0235 4.09211C12.5138 4.10567 12.252 4.15306 12.0491 4.24658C11.8472 4.33961 11.6523 4.50182 11.328 4.86313C11.1693 5.04 10.9979 5.24273 10.7895 5.48919C10.562 5.75825 10.2926 6.07693 9.95474 6.46194C9.64552 6.8143 9.06892 6.80146 8.79234 6.39057C7.83398 4.96678 6.48174 2.73813 5.84907 1.68519C5.50954 2.08485 5.24975 2.41214 5.03279 2.68549L5.03215 2.68629C4.94585 2.79502 4.86567 2.89604 4.79016 2.98936C4.49459 3.35461 4.22977 3.65769 3.87254 3.84803C3.50764 4.04245 3.10285 4.09108 2.59575 4.10527C2.30257 4.11347 1.94298 4.10993 1.5044 4.10561L1.49962 4.10556C1.17994 4.10241 0.816122 4.09883 0.399902 4.09883H0.149902V3.09883H0.399902C0.834993 3.09883 1.20575 3.10254 1.52501 3.10573C1.95797 3.11006 2.2923 3.11336 2.56779 3.10566C3.04747 3.09224 3.25353 3.04476 3.40231 2.96549C3.55866 2.88218 3.71028 2.73415 4.01279 2.36031C4.08324 2.27325 4.15979 2.17681 4.24508 2.06934C4.51114 1.73412 4.85593 1.2997 5.33142 0.753507ZM4.9246 2.01933C4.81938 2.15004 4.72408 2.2701 4.63672 2.38017C4.55203 2.48688 4.47354 2.58578 4.40147 2.67483C4.4754 2.58347 4.55425 2.48413 4.64115 2.37465C4.72749 2.26588 4.82148 2.14745 4.9246 2.01933ZM13.9589 3.59044C14.0115 3.59094 14.0654 3.59146 14.1205 3.592L14.1248 3.59205C14.4487 3.59522 14.8181 3.59883 15.2464 3.59883C14.8309 3.59883 14.4641 3.59529 14.1403 3.59216C14.0783 3.59157 14.0176 3.59098 13.9589 3.59044ZM0.649902 3.59925C0.976731 3.60029 1.26438 3.60315 1.52039 3.60571L1.52514 3.60576C1.57572 3.60626 1.62513 3.60676 1.67341 3.60722C1.61867 3.60671 1.56241 3.60616 1.50455 3.60559C1.25025 3.60308 0.966249 3.60029 0.649902 3.59925ZM10.3773 5.20227C10.1531 5.46721 9.89304 5.77395 9.59057 6.11888L9.58341 6.12704C9.90128 5.76472 10.1576 5.46215 10.3773 5.20227ZM5.33142 4.89671C5.65499 4.52502 6.25764 4.56411 6.51863 5.00043C6.99463 5.79619 8.38992 8.11347 9.42911 9.68615C9.6502 9.4306 9.84637 9.19885 10.0218 8.99157L10.0238 8.98917C10.2381 8.736 10.4235 8.51703 10.5838 8.33842C10.9267 7.95631 11.2344 7.66415 11.6305 7.48158C12.0257 7.29948 12.4574 7.25002 12.9969 7.23566C13.3101 7.22733 13.6873 7.23097 14.1404 7.23534L14.1448 7.23538C14.4688 7.23851 14.8335 7.24203 15.2464 7.24203H15.8416V8.24203H15.2464C14.8156 8.24203 14.4441 8.2384 14.1204 8.23523C13.6728 8.23084 13.3198 8.22742 13.0235 8.23531C12.5138 8.24887 12.252 8.29626 12.0491 8.38978C11.8472 8.48281 11.6523 8.64502 11.328 9.00633C11.1693 9.1832 10.9979 9.38594 10.7895 9.63239C10.562 9.90146 10.2926 10.2201 9.95474 10.6051C9.64552 10.9575 9.06892 10.9447 8.79234 10.5338C7.83398 9.10998 6.48174 6.88133 5.84907 5.82839C5.50954 6.22806 5.24975 6.55534 5.03278 6.82869L5.03214 6.82951C4.94584 6.93824 4.86566 7.03925 4.79016 7.13256C4.49459 7.49781 4.22977 7.80089 3.87254 7.99123C3.50764 8.18566 3.10285 8.23428 2.59575 8.24847C2.30257 8.25667 1.94298 8.25313 1.5044 8.24881L1.49962 8.24876C1.17993 8.24561 0.81612 8.24203 0.399902 8.24203H0.149902V7.24203H0.399902C0.835039 7.24203 1.20582 7.24574 1.52511 7.24893C1.95808 7.25326 2.2923 7.25656 2.56779 7.24886C3.04747 7.23544 3.25353 7.18796 3.40231 7.10869C3.55866 7.02538 3.71028 6.87735 4.01279 6.50351C4.08324 6.41645 4.15979 6.32001 4.24508 6.21254C4.51114 5.87732 4.85592 5.44291 5.33142 4.89671ZM4.93165 6.15377C4.82363 6.28788 4.72603 6.41085 4.63672 6.52337C4.55199 6.63014 4.47357 6.72894 4.40147 6.81804C4.4754 6.72668 4.55425 6.62734 4.64115 6.51785C4.72945 6.4066 4.82574 6.28529 4.93165 6.15377ZM13.9584 7.73364C14.0112 7.73413 14.0652 7.73466 14.1204 7.7352L14.1248 7.73525C14.4487 7.73842 14.8181 7.74203 15.2464 7.74203C14.8309 7.74203 14.4641 7.73849 14.1403 7.73537C14.0782 7.73477 14.0173 7.73418 13.9584 7.73364ZM0.649902 7.74245C0.97673 7.74349 1.26438 7.74635 1.52038 7.74891L1.52509 7.74896C1.57529 7.74946 1.62432 7.74995 1.67224 7.75041C1.61788 7.7499 1.56199 7.74935 1.50454 7.74879C1.25025 7.74628 0.966244 7.74349 0.649902 7.74245ZM10.3772 9.34556C10.153 9.61049 9.893 9.91719 9.59057 10.2621L9.58532 10.2681C9.90227 9.90675 10.158 9.6049 10.3772 9.34556ZM5.33142 9.03991C5.65499 8.66822 6.25764 8.70731 6.51863 9.14363C6.99463 9.93939 8.38992 12.2567 9.42911 13.8293C9.6502 13.5738 9.84637 13.342 10.0218 13.1348L10.0239 13.1322C10.2382 12.8791 10.4235 12.6602 10.5838 12.4816C10.9267 12.0995 11.2344 11.8074 11.6305 11.6248C12.0257 11.4427 12.4574 11.3932 12.9969 11.3789C13.3101 11.3705 13.6873 11.3742 14.1403 11.3785L14.1447 11.3786C14.4688 11.3817 14.8335 11.3852 15.2464 11.3852L15.8416 11.3852L15.8416 12.3852L15.2464 12.3852C14.8156 12.3852 14.4442 12.3816 14.1205 12.3784C13.6729 12.374 13.3198 12.3706 13.0235 12.3785C12.5138 12.3921 12.252 12.4395 12.0491 12.533C11.8472 12.626 11.6523 12.7882 11.328 13.1495C11.1693 13.3264 10.9979 13.5291 10.7895 13.7756C10.562 14.0447 10.2927 14.3633 9.95474 14.7483C9.64552 15.1007 9.06892 15.0879 8.79234 14.677C7.83398 13.2532 6.48174 11.0245 5.84907 9.97159C5.50954 10.3713 5.24975 10.6985 5.03279 10.9719L5.03216 10.9727C4.94585 11.0814 4.86567 11.1824 4.79016 11.2758C4.49459 11.641 4.22977 11.9441 3.87254 12.1344C3.50764 12.3289 3.10285 12.3775 2.59575 12.3917C2.30256 12.3999 1.94295 12.3963 1.50435 12.392L1.49961 12.392C1.17993 12.3888 0.816118 12.3852 0.399902 12.3852H0.149902V11.3852H0.399902C0.835085 11.3852 1.2059 11.3889 1.52521 11.3921C1.95818 11.3965 2.2923 11.3998 2.56779 11.3921C3.04747 11.3786 3.25353 11.3312 3.40231 11.2519C3.55866 11.1686 3.71028 11.0206 4.01279 10.6467C4.08324 10.5597 4.15979 10.4632 4.24508 10.3557C4.51113 10.0205 4.85594 9.58609 5.33142 9.03991ZM4.91678 10.3154C4.81465 10.4424 4.72191 10.5592 4.63672 10.6666L4.63608 10.6674C4.55141 10.7741 4.47352 10.8722 4.40147 10.9612C4.4754 10.8699 4.55425 10.7705 4.64116 10.661C4.72531 10.555 4.81674 10.4398 4.91678 10.3154ZM14.1399 11.8786C14.0781 11.878 14.0178 11.8774 13.9592 11.8768C14.0117 11.8773 14.0655 11.8779 14.1205 11.8784L14.1248 11.8784C14.4487 11.8816 14.8181 11.8852 15.2464 11.8852C14.831 11.8852 14.4637 11.8817 14.1399 11.8786ZM0.649902 11.8856C0.976729 11.8867 1.26438 11.8896 1.52038 11.8921L1.52504 11.8922C1.57791 11.8927 1.62948 11.8932 1.67982 11.8937C1.62307 11.8932 1.56467 11.8926 1.50454 11.892C1.25024 11.8895 0.96625 11.8867 0.649902 11.8856ZM10.379 13.4867C10.1544 13.7521 9.89381 14.0595 9.59057 14.4053L9.58535 14.4112C9.90315 14.049 10.1594 13.7465 10.379 13.4867Z" fill="black"/>
</svg>
