<svg width="16" height="16" viewBox="0 0 16 16" fill="none" xmlns="http://www.w3.org/2000/svg">
<path fill-rule="evenodd" clip-rule="evenodd" d="M5.33148 0.753507C5.65505 0.381821 6.2577 0.420908 6.51869 0.857228C6.99469 1.65299 8.38998 3.97027 9.42917 5.54295C9.65026 5.2874 9.84643 5.05565 10.0219 4.84837L10.024 4.84585C10.2383 4.59273 10.4236 4.37381 10.5838 4.19522C10.9267 3.81311 11.2344 3.52095 11.6306 3.33838C12.0257 3.15628 12.4574 3.10682 12.9969 3.09246C13.3102 3.08413 13.6874 3.08777 14.1405 3.09214L14.1448 3.09218C14.4688 3.09531 14.8336 3.09883 15.2464 3.09883L15.8417 3.09883V4.09883L15.2464 4.09883C14.8156 4.09883 14.4441 4.0952 14.1203 4.09202C13.6727 4.08764 13.3199 4.08422 13.0235 4.09211C12.5139 4.10567 12.2521 4.15306 12.0491 4.24658C11.8473 4.33961 11.6523 4.50182 11.3281 4.86313C11.1693 5.04 10.9979 5.24273 10.7896 5.48919C10.5621 5.75825 10.2927 6.07693 9.9548 6.46194C9.64558 6.8143 9.06898 6.80146 8.7924 6.39057C7.83405 4.96678 6.4818 2.73813 5.84914 1.68519C5.5096 2.08485 5.24981 2.41214 5.03285 2.68549L5.03222 2.68629C4.94591 2.79502 4.86573 2.89604 4.79022 2.98936C4.49465 3.35461 4.22983 3.65769 3.8726 3.84803C3.5077 4.04245 3.10291 4.09108 2.59582 4.10527C2.30263 4.11347 1.94304 4.10993 1.50446 4.10561L1.49968 4.10556C1.18 4.10241 0.816183 4.09883 0.399963 4.09883H0.149963V3.09883H0.399963C0.835054 3.09883 1.20581 3.10254 1.52507 3.10573C1.95803 3.11006 2.29236 3.11336 2.56785 3.10566C3.04753 3.09224 3.25359 3.04476 3.40237 2.96549C3.55872 2.88218 3.71034 2.73415 4.01285 2.36031C4.0833 2.27325 4.15985 2.17681 4.24515 2.06934C4.5112 1.73412 4.85599 1.2997 5.33148 0.753507ZM4.92466 2.01933C4.81944 2.15004 4.72414 2.2701 4.63678 2.38017C4.55209 2.48688 4.4736 2.58578 4.40153 2.67483C4.47546 2.58347 4.55431 2.48413 4.64122 2.37465C4.72755 2.26588 4.82154 2.14745 4.92466 2.01933ZM13.9589 3.59044C14.0116 3.59094 14.0654 3.59146 14.1206 3.592L14.1249 3.59205C14.4488 3.59522 14.8182 3.59883 15.2464 3.59883C14.831 3.59883 14.4642 3.59529 14.1404 3.59216C14.0784 3.59157 14.0177 3.59098 13.9589 3.59044ZM0.649963 3.59925C0.976792 3.60029 1.26444 3.60315 1.52045 3.60571L1.5252 3.60576C1.57578 3.60626 1.62519 3.60676 1.67347 3.60722C1.61873 3.60671 1.56247 3.60616 1.50461 3.60559C1.25031 3.60308 0.966311 3.60029 0.649963 3.59925ZM10.3774 5.20227C10.1531 5.46721 9.8931 5.77395 9.59063 6.11888L9.58347 6.12704C9.90135 5.76472 10.1577 5.46215 10.3774 5.20227ZM5.33148 4.89671C5.65505 4.52502 6.2577 4.56411 6.51869 5.00043C6.99469 5.79619 8.38998 8.11347 9.42917 9.68615C9.65026 9.4306 9.84643 9.19885 10.0219 8.99157L10.0239 8.98917C10.2382 8.736 10.4235 8.51704 10.5838 8.33842C10.9267 7.95631 11.2344 7.66415 11.6306 7.48158C12.0257 7.29948 12.4574 7.25002 12.9969 7.23566C13.3102 7.22733 13.6874 7.23097 14.1404 7.23534L14.1448 7.23538C14.4688 7.23851 14.8336 7.24203 15.2464 7.24203H15.8417V8.24203H15.2464C14.8157 8.24203 14.4442 8.2384 14.1205 8.23523C13.6728 8.23084 13.3199 8.22742 13.0235 8.23531C12.5139 8.24887 12.2521 8.29626 12.0491 8.38978C11.8473 8.48281 11.6523 8.64502 11.3281 9.00633C11.1693 9.1832 10.9979 9.38594 10.7896 9.63239C10.5621 9.90146 10.2927 10.2201 9.9548 10.6051C9.64558 10.9575 9.06898 10.9447 8.7924 10.5338C7.83405 9.10998 6.4818 6.88133 5.84914 5.82839C5.5096 6.22806 5.24981 6.55534 5.03285 6.82869L5.0322 6.82951C4.9459 6.93824 4.86572 7.03925 4.79022 7.13256C4.49465 7.49781 4.22983 7.80089 3.8726 7.99123C3.5077 8.18566 3.10291 8.23428 2.59582 8.24847C2.30263 8.25667 1.94304 8.25313 1.50446 8.24881L1.49968 8.24876C1.17999 8.24561 0.816181 8.24203 0.399963 8.24203H0.149963V7.24203H0.399963C0.8351 7.24203 1.20589 7.24574 1.52517 7.24893C1.95814 7.25326 2.29236 7.25656 2.56785 7.24886C3.04754 7.23544 3.25359 7.18796 3.40237 7.10869C3.55872 7.02538 3.71034 6.87735 4.01285 6.50351C4.0833 6.41645 4.15985 6.32001 4.24515 6.21254C4.5112 5.87732 4.85598 5.44291 5.33148 4.89671ZM4.93171 6.15377C4.82369 6.28788 4.72609 6.41085 4.63679 6.52337C4.55205 6.63014 4.47363 6.72894 4.40153 6.81804C4.47546 6.72668 4.55431 6.62734 4.64121 6.51785C4.72951 6.4066 4.8258 6.28529 4.93171 6.15377ZM13.9585 7.73364C14.0112 7.73413 14.0652 7.73466 14.1205 7.7352L14.1249 7.73525C14.4488 7.73842 14.8182 7.74203 15.2464 7.74203C14.831 7.74203 14.4642 7.73849 14.1404 7.73537C14.0782 7.73477 14.0174 7.73418 13.9585 7.73364ZM0.649963 7.74245C0.976791 7.74349 1.26444 7.74635 1.52045 7.74891L1.52515 7.74896C1.57535 7.74946 1.62438 7.74995 1.6723 7.75041C1.61794 7.7499 1.56205 7.74935 1.5046 7.74879C1.25031 7.74628 0.966305 7.74349 0.649963 7.74245ZM10.3773 9.34556C10.1531 9.61049 9.89306 9.91719 9.59063 10.2621L9.58538 10.2681C9.90233 9.90675 10.158 9.6049 10.3773 9.34556ZM5.33148 9.03991C5.65505 8.66822 6.2577 8.70731 6.51869 9.14363C6.99469 9.93939 8.38998 12.2567 9.42917 13.8293C9.65026 13.5738 9.84643 13.342 10.0219 13.1348L10.024 13.1322C10.2383 12.8791 10.4236 12.6602 10.5838 12.4816C10.9267 12.0995 11.2344 11.8074 11.6306 11.6248C12.0257 11.4427 12.4574 11.3932 12.9969 11.3789C13.3102 11.3705 13.6874 11.3742 14.1404 11.3785L14.1448 11.3786C14.4688 11.3817 14.8336 11.3852 15.2464 11.3852L15.8417 11.3852L15.8417 12.3852L15.2464 12.3852C14.8157 12.3852 14.4443 12.3816 14.1206 12.3784C13.673 12.374 13.3199 12.3706 13.0235 12.3785C12.5139 12.3921 12.2521 12.4395 12.0491 12.533C11.8473 12.626 11.6523 12.7882 11.3281 13.1495C11.1693 13.3264 10.9979 13.5291 10.7896 13.7756C10.5621 14.0447 10.2927 14.3633 9.9548 14.7483C9.64558 15.1007 9.06898 15.0879 8.7924 14.677C7.83405 13.2532 6.4818 11.0245 5.84913 9.97159C5.5096 10.3713 5.24981 10.6985 5.03285 10.9719L5.03222 10.9727C4.94591 11.0814 4.86573 11.1824 4.79022 11.2758C4.49465 11.641 4.22983 11.9441 3.8726 12.1344C3.5077 12.3289 3.10291 12.3775 2.59582 12.3917C2.30262 12.3999 1.94302 12.3963 1.50441 12.392L1.49968 12.392C1.17999 12.3888 0.816179 12.3852 0.399963 12.3852H0.149963V11.3852H0.399963C0.835146 11.3852 1.20596 11.3889 1.52527 11.3921C1.95824 11.3965 2.29236 11.3998 2.56785 11.3921C3.04754 11.3786 3.25359 11.3312 3.40237 11.2519C3.55872 11.1686 3.71034 11.0206 4.01285 10.6467C4.0833 10.5597 4.15985 10.4632 4.24514 10.3557C4.51119 10.0205 4.856 9.58609 5.33148 9.03991ZM4.91685 10.3154C4.81471 10.4424 4.72197 10.5592 4.63678 10.6666L4.63614 10.6674C4.55148 10.7741 4.47358 10.8722 4.40153 10.9612C4.47546 10.8699 4.55432 10.7705 4.64122 10.661C4.72537 10.555 4.8168 10.4398 4.91685 10.3154ZM14.14 11.8786C14.0781 11.878 14.0179 11.8774 13.9592 11.8768C14.0118 11.8773 14.0656 11.8779 14.1206 11.8784L14.1249 11.8784C14.4488 11.8816 14.8182 11.8852 15.2464 11.8852C14.8311 11.8852 14.4638 11.8817 14.14 11.8786ZM0.649963 11.8856C0.97679 11.8867 1.26444 11.8896 1.52044 11.8921L1.5251 11.8922C1.57797 11.8927 1.62954 11.8932 1.67989 11.8937C1.62313 11.8932 1.56473 11.8926 1.5046 11.892C1.25031 11.8895 0.966311 11.8867 0.649963 11.8856ZM10.3791 13.4867C10.1544 13.7521 9.89387 14.0595 9.59063 14.4053L9.58542 14.4112C9.90321 14.049 10.1594 13.7465 10.3791 13.4867Z" fill="black"/>
</svg>
