<svg width="24" height="24" viewBox="0 0 24 24" fill="none" xmlns="http://www.w3.org/2000/svg">
<path fill-rule="evenodd" clip-rule="evenodd" d="M10.92 18.06C11.5014 18.1973 12.1123 18.1302 12.65 17.87L23.24 12.948V11.248L14.26 6.75L7.18 9.85L4.93 8.77L4.928 8.774C4.46059 8.56896 3.94435 8.50165 3.44 8.58C2.69764 8.70123 2.025 9.08909 1.54818 9.67084C1.07137 10.2526 0.823123 10.9883 0.849997 11.74C0.867281 12.1845 0.999197 12.617 1.23294 12.9954C1.46668 13.3739 1.7943 13.6855 2.184 13.9V13.901L2.21 13.914L2.26 13.94V13.938L10.486 17.911L10.488 17.908C10.619 17.968 10.755 18.017 10.895 18.053L10.92 18.06ZM11.22 16.746C10.914 16.655 10.656 16.425 10.46 16.174C10.2652 15.923 10.1533 15.6175 10.14 15.3L12.01 16.24L12.32 16.06C12.7673 15.8218 13.1207 15.4389 13.3223 14.9739C13.5239 14.509 13.5619 13.9894 13.43 13.5C13.338 13.2103 13.1812 12.9454 12.9716 12.7253C12.7619 12.5053 12.5049 12.3359 12.22 12.23L8.794 10.626L14.23 8.25L21.86 12.11L12.04 16.68C11.7832 16.7988 11.4925 16.8222 11.22 16.746ZM11.9 13.616L11.846 13.59H11.46C11.1239 13.6399 10.816 13.8062 10.59 14.06L11.93 14.73C12.0365 14.636 12.1144 14.514 12.1551 14.3779C12.1957 14.2418 12.1974 14.097 12.16 13.96C12.1129 13.8202 12.0217 13.6994 11.9 13.616ZM4.504 10.063L10.063 12.733C9.69432 12.9778 9.38867 13.3062 9.17094 13.6914C8.9532 14.0767 8.82953 14.5079 8.81 14.95V15.31C8.81 15.41 8.816 15.511 8.827 15.611L2.868 12.733L2.87 12.73C2.67352 12.6296 2.50765 12.4783 2.38977 12.2918C2.27189 12.1053 2.20634 11.8905 2.2 11.67C2.18932 11.2539 2.32905 10.8478 2.59355 10.5264C2.85805 10.2049 3.22959 9.98964 3.64 9.92C3.935 9.866 4.24 9.92 4.5 10.07L4.504 10.063Z" fill="black"/>
</svg>
