<svg width="16" height="16" viewBox="0 0 16 16" fill="none" xmlns="http://www.w3.org/2000/svg">
<path fill-rule="evenodd" clip-rule="evenodd" d="M7.27999 12.04C7.66757 12.1315 8.07484 12.0868 8.43332 11.9133L15.4933 8.632V7.49867L9.50666 4.5L4.78665 6.56667L3.28665 5.84667L3.28532 5.84933C2.97372 5.71264 2.62956 5.66777 2.29332 5.72C1.79842 5.80082 1.34999 6.05939 1.03211 6.44723C0.714234 6.83506 0.548738 7.32553 0.566654 7.82667C0.578177 8.12299 0.666121 8.41131 0.821947 8.66362C0.977773 8.91593 1.19619 9.12367 1.45599 9.26667V9.26733L1.47332 9.276L1.50665 9.29333V9.292L6.99065 11.9407L6.99199 11.9387C7.07932 11.9787 7.16999 12.0113 7.26332 12.0353L7.27999 12.04ZM7.47999 11.164C7.27599 11.1033 7.10399 10.95 6.97332 10.7827C6.84343 10.6153 6.76887 10.4117 6.75999 10.2L8.00665 10.8267L8.21332 10.7067C8.51155 10.5479 8.7471 10.2926 8.88151 9.98263C9.01592 9.67264 9.04124 9.32623 8.95332 9C8.89199 8.80688 8.78748 8.63026 8.64771 8.48356C8.50794 8.33686 8.33659 8.22393 8.14665 8.15333L5.86265 7.084L9.48665 5.5L14.5733 8.07333L8.02665 11.12C7.85546 11.1992 7.66165 11.2148 7.47999 11.164ZM7.93332 9.07733L7.89732 9.06H7.63999C7.41591 9.09326 7.21064 9.20416 7.05999 9.37333L7.95332 9.82C8.0243 9.75731 8.07628 9.67599 8.10339 9.58526C8.13049 9.49452 8.13162 9.39801 8.10665 9.30667C8.07529 9.21344 8.01445 9.13295 7.93332 9.07733ZM3.00265 6.70867L6.70865 8.48867C6.46287 8.65185 6.25911 8.87077 6.11395 9.12761C5.96879 9.38444 5.88634 9.67193 5.87332 9.96667V10.2067C5.87332 10.2733 5.87732 10.3407 5.88465 10.4073L1.91199 8.48867L1.91332 8.48667C1.78233 8.41976 1.67176 8.31886 1.59317 8.19453C1.51458 8.0702 1.47089 7.92702 1.46665 7.78C1.45953 7.50257 1.55269 7.23188 1.72902 7.01759C1.90536 6.80329 2.15305 6.65976 2.42665 6.61333C2.62332 6.57733 2.82665 6.61333 2.99999 6.71333L3.00265 6.70867Z" fill="black"/>
</svg>
